<?xml version="1.0" encoding="UTF-8"?>
<!DOCTYPE svg PUBLIC "-//W3C//DTD SVG 1.1//EN" "http://www.w3.org/Graphics/SVG/1.1/DTD/svg11.dtd">
<!-- Creator: CorelDRAW 2018 (64-Bit) -->
<svg xmlns="http://www.w3.org/2000/svg" xml:space="preserve" width="0.426669in" height="0.426665in" version="1.1" style="shape-rendering:geometricPrecision; text-rendering:geometricPrecision; image-rendering:optimizeQuality; fill-rule:evenodd; clip-rule:evenodd"
viewBox="0 0 134.94 134.94"
 xmlns:xlink="http://www.w3.org/1999/xlink">
 <defs>
  <style type="text/css">
   <![CDATA[
    .fil0 {fill:#FFB111}
    .fil1 {fill:white}
   ]]>
  </style>
 </defs>
 <g id="Layer_x0020_1">
  <metadata id="CorelCorpID_0Corel-Layer"/>
  <g id="_1702146439168">
   <rect class="fil0" x="0" y="0" width="134.94" height="134.94"/>
   <path class="fil1" d="M72.61 103.83c6.13,-0.52 13.31,-3.91 17.33,-6.69 3.42,-2.36 6.78,-5.47 9.3,-8.68 0.46,-0.59 0.83,-1.06 1.26,-1.69 0.44,-0.66 1.05,-1.15 1.01,-2.17 -0.26,-2.63 -1.07,-4.92 -1.88,-7.21 -0.85,-2.42 -0.86,-1.76 -5.68,-3.62 -2.06,-0.8 -12.22,-4.72 -13.53,-5.03 0.42,0.53 1.18,1.05 1.71,1.54l1.62 1.48c0.72,0.73 2.84,2.45 3.18,3.03 -0.36,0.4 -2.2,2.01 -2.74,2.27 0.23,0.62 0.91,1.38 1.35,1.9 0.39,0.46 1.16,1.34 1.42,1.88 -0.33,0.76 -1.29,2.13 -1.75,2.87l-11.62 18.6c-0.27,0.45 -0.65,0.96 -0.97,1.53z"/>
   <polygon class="fil1" points="52.56,68.77 56.45,66.45 59.13,64.89 76.66,66.32 80.41,68.74 88.1,71.53 90.76,83.67 72.21,103.92 69.6,104.15 66.71,104.21 63.34,104.13 60.23,103.77 43.48,89.6 41.6,72.86 48.63,70.18 "/>
   <path class="fil0" d="M68.29 74.21l-3.35 0.01c-0.28,0.59 -1.08,1.57 -1.5,2.16 -1.2,1.71 -1.41,0.67 0.75,4.9 0.37,0.72 1.25,1.79 1.01,2.74l-3.95 11.39c-0.35,-0.5 -3.8,-11.2 -4.31,-12.78 -1.13,-3.45 -0.78,-3.59 -0.78,-7.71 0,-3.04 0.04,-5.51 0.28,-8.48l-3.88 2.32c-0.56,0.43 -6.52,5.32 -6.79,5.89 1.21,0.86 2.22,2.18 3.42,3.04 -0.48,0.89 -1.96,2.02 -2.57,2.69 0.21,0.72 2.87,4.82 3.47,5.86 3.35,5.78 7.21,11.78 10.72,17.59 1.57,0.5 10.23,0.5 11.79,-0 0.32,-0.57 0.7,-1.08 0.97,-1.53l11.62 -18.6c0.46,-0.74 1.42,-2.11 1.75,-2.87 -0.26,-0.54 -1.03,-1.42 -1.42,-1.88 -0.44,-0.52 -1.12,-1.28 -1.35,-1.9 0.54,-0.25 2.38,-1.87 2.74,-2.27 -0.34,-0.59 -2.46,-2.3 -3.18,-3.03l-1.62 -1.48c-0.53,-0.49 -1.29,-1.01 -1.71,-1.54l-3.76 -2.41c-0.03,0.9 0.71,2.07 0.72,3.44l-0.01 8.86c-0.06,0.81 -2.69,8.92 -3.05,10.11l-2.15 6.67c-0.69,-1.47 -1.39,-3.92 -1.94,-5.55l-1.97 -5.71c-0.24,-0.94 0.5,-1.85 0.89,-2.64 0.45,-0.91 0.76,-1.68 1.24,-2.6 0.87,-1.7 -0.01,-1.45 -2.08,-4.68z"/>
   <path class="fil1" d="M54.47 35.91c-0.02,0.03 -0.14,5.82 -0.56,8.88 -0.01,0.05 -0.96,0.34 -0.97,0.39 -0.09,0.68 -0.15,1.2 -0.15,1.43 0.02,1.85 -0.24,3.82 0.46,5.37 0.29,0.64 0.56,1.23 1,1.8 0.49,0.64 0.59,0.74 1.27,0.94 0.3,0.09 -0.01,-0.01 0.24,0.06l0.22 0.08c0.41,0.15 0.2,2.34 0.56,3.41 0.5,1.49 1.06,1.26 1.05,3.24l1.17 6.93c0.01,0.03 -1.22,0.19 -1.21,0.22 0.01,0.03 0.03,0.08 0.05,0.11l-0 -8.52 0.03 0.02 0 0 0.03 0.03 0 0 0.03 0.03 0 0 0.03 0.03 0 0 0.03 0.04 0 0 0.04 0.04 0 0 0.04 0.04 0 0 0.04 0.04 0 0 0.04 0.04 0 0 0.04 0.05 0 0 0.04 0.05 0 0 0.04 0.05 0 0 0.05 0.05 0 0 0.05 0.06 0 0 0.05 0.06 0 0 0.05 0.06 0 0 0.05 0.06 0 0 0.05 0.06 0 0 0.05 0.06 0 0 0.05 0.07 0 0 0.06 0.07 0 0 0.06 0.07 0 0 0.06 0.07 0 0 0.06 0.07 0 0 0.06 0.07 0 0 0.06 0.07 0 0 0.06 0.07 0 0 0.06 0.07 0 0 0.06 0.08 0 0 0.06 0.08 0 0 0.06 0.08 0 0 0.06 0.08 0 0 0.06 0.08 0 0 0.06 0.08 0 0 0.07 0.08 0 0 0.07 0.08 0 0 0.34 0.4 0 0 0.07 0.08 0 0 0.14 0.16 0 0 0.07 0.08 0 0 0.14 0.16 0 0 0.14 0.15 0 0c0.35,0.38 0.71,0.73 1.05,1.02l0.21 0.18 0 0 0.07 0.06 0 0 0.21 0.18 0 0 0.35 0.3 0 0 0.14 0.12 0 0 0.22 0.18 0 0 0.15 0.12 0.07 0.06 0 0 0.07 0.06 0 0 0.07 0.06 0 0 0.07 0.06 0 0 0.07 0.06 0.07 0.05 0 0 0.08 0.05 0 0 0.15 0.11 0 0 0.08 0.05 0 0 0.08 0.05 0 0 0.16 0.1 0 0 0.08 0.05 0 0 0.16 0.09 0 0 0.08 0.05 0 0 0.08 0.04 0 0 0.08 0.04 0 0 0.16 0.08 0 0 0.08 0.04 0 0 0.17 0.08 0.08 0.04 0.08 0.03 0 0 0.08 0.03 0 0 0.09 0.03 0.09 0.03 0 0 0.09 0.03 0.09 0.03 0 0 0.09 0.03 0.09 0.02 0.09 0.02 0 0 0.09 0.02 0 0 0.09 0.02 0 0 0.09 0.02 0 0 0.09 0.02 0 0 0.09 0.01 0 0 0.09 0.01 0 0 0.09 0.01 0 0 0.09 0.01 0.1 0.01 0 0 0.1 0 0 0 0.1 0 0 0 0.1 0c0.1,-0 0.2,-0 0.3,-0.01l0 -0 0.2 -0.02 0 -0 0.1 -0.01 0 -0 0.1 -0.01 0 0 0.1 -0.02 0 0 0.19 -0.04 0.1 -0.02 0 -0 0.09 -0.02 0.09 -0.03 0 -0 0.09 -0.03 0 0 0.09 -0.03 0 0 0.09 -0.03 0.09 -0.03 0.09 -0.04 0.09 -0.04 0.09 -0.04 0.09 -0.04 0.09 -0.04 0.09 -0.04 0.09 -0.04 0.09 -0.04 0.09 -0.04 0 -0 0.09 -0.05 0.09 -0.05 0 -0 0.09 -0.05 0.08 -0.05 0 -0 0.08 -0.05 0.08 -0.05 0 -0 0.08 -0.05 0.08 -0.05 0 -0 0.08 -0.05 0 -0 0.08 -0.05 0 -0 0.08 -0.05 0 -0 0.08 -0.05 0 -0 0.08 -0.05 0.08 -0.05 0 -0 0.08 -0.05 0 -0 0.08 -0.05 0 -0 0.07 -0.06 0.07 -0.06 0 -0 0.07 -0.06 0.07 -0.06 0 -0 0.07 -0.06 0.07 -0.06 0 -0 0.07 -0.05 0 -0 0.07 -0.05 0 -0 0.07 -0.05 0 -0 0.07 -0.05 0 -0 0.07 -0.05 0 -0 0.06 -0.05 0 -0 0.06 -0.05 0 -0 0.06 -0.05 0 -0 0.06 -0.05 0 -0 0.06 -0.05 0 0 0.06 -0.05 0 -0 0.06 -0.05 0 -0 0.06 -0.05 0 -0 0.06 -0.05 0 -0 0.05 -0.05 0 -0 0.03 -0.03 0 -0 0.03 -0.03 0 -0 0.03 -0.03 0 -0 0.03 -0.03 0 -0 0.03 -0.03 0 -0 0.03 -0.03 0 -0 0.03 -0.03 0 -0 0.03 -0.03 0 -0 0.03 -0.03 0 -0 0.03 -0.03 0 -0 0.03 -0.03 0 -0 0.03 -0.03 0 -0 0.03 -0.03 0 -0 0.03 -0.03 0 -0 0.03 -0.03 0 -0 0.03 -0.03 0 -0 0.03 -0.03 0.03 -0.03 0 -0 0.03 -0.03 0.03 -0.03 0 -0 0.03 -0.03 0.03 -0.03 0.03 -0.03 0.03 -0.03 0 -0 0.03 -0.03 0.03 -0.03 0 0 0.03 -0.03 0 0 0.03 -0.03 0.03 -0.03 0.03 -0.03 0.03 -0.03 0.03 -0.03 0.03 -0.03 0.03 -0.03 0.03 -0.03 0 0 0.03 -0.03 0.03 -0.03 0 -0 0.03 -0.03 0.03 -0.03 0 -0 0.03 -0.03 0.03 -0.03 0 -0 0.03 -0.03 0 -0 0.03 -0.03 0 -0 0.03 -0.03 0 -0 0.03 -0.03 0 -0 0.03 -0.03 0 -0 0.03 -0.03 0.03 -0.03 0 -0 0.03 -0.03 0 -0 0.03 -0.03 0.03 -0.03 0 -0 0.03 -0.03 0 -0 0.03 -0.03 0.03 -0.03 0 -0 0.03 -0.03 0 -0 0.03 -0.03 0 -0 0.03 -0.03 0 -0 0.03 -0.03 0 -0 0.03 -0.03 0 -0 0.03 -0.03 0 -0 0.03 -0.03 0 -0 0.03 -0.03 0 -0 0.03 -0.03 0 -0 0.03 -0.03 0 -0 0.03 -0.03 0 -0 0.03 -0.03 0 -0 0.03 -0.03 0 -0 0.03 -0.03 0 -0 0.03 -0.03 0 -0 0.03 -0.03 0 -0 0.03 -0.03 0 -0 0.03 -0.03 0 -0 0.03 -0.03 0 0 0.06 -0.07 0.03 -0.04 0.03 -0.03 0 -0 0.06 -0.07 0 -0 0.03 -0.03 0.03 -0.04 0.03 -0.04 0 -0 0.03 -0.03 0 -0 0.03 -0.04 0 0 0.03 -0.04 0.03 -0.04 0.03 -0.04 0.03 -0.04 0.03 -0.04 0.03 -0.04 0.03 -0.04 0.03 -0.04 0.03 -0.04 0.03 -0.04 0.03 -0.04 0.03 -0.03 0.03 -0.04 0.03 -0.03 0 0 0.03 -0.03 0 -0 0.03 -0.03 0.03 -0.03 0 0 0.03 -0.03 0 -0 0.03 -0.03 0 -0 0.03 -0.03 0 0 0.03 -0.03 0 0 0.03 -0.03 0 -0 0.03 -0.03 0.03 -0.03 0 0 0.06 -0.07 0.03 -0.03 0.06 -0.06 0 0 0.09 -0.09 0 0 0.06 -0.06 0 -0 0.03 -0.03 0 0 0.03 -0.03 0 0 0.03 -0.03 0 0 0.06 -0.06 0 0 0.03 -0.03 0 0 0.06 -0.05 0 0 0.03 -0.03 0 0 0.03 -0.02 0 0 0.02 -0.02 0 0 0.02 -0.02 0 -0 0.02 -0.02 0 0 0.02 -0.02c0.3,-0.73 0.78,-1.21 1.1,-2.22 0.34,-1.07 0.2,-2.06 0.31,-3.26 1.33,-0.41 1.37,-0.13 2.16,-1.37 1.51,-2.38 1.24,-3.03 1.24,-5.83 0,-2.61 0.23,-2.41 -1.07,-2.48 -0.67,0.96 -0.83,0.62 -1.42,2.49 -0.21,0.66 -0.01,0.58 -0.59,0.71 -0.61,-0.89 0.32,-10.41 -0.28,-12.23 -0.58,-1.74 -2.58,-1.51 -4.48,-1.23 -7.34,1.07 -13.44,-0.43 -14.65,-0.2 -2.8,0.53 -2.02,3.28 -2.02,7.48 0,1 0.14,5.57 -0.08,6.15 -1.04,-0.07 -0.47,-1.49 -1.69,-2.69 -0.38,-0.38 -0.9,-0.5 -0.97,-0.65l1.17 -9.08zm3.12 24.33l-0 -0 0 0z"/>
   <path class="fil1" d="M32.36 85.11c-0.04,1.31 1.16,2.52 2.16,3.76 2.5,3.12 5.74,6.13 9.22,8.46 4.02,2.7 11.02,5.98 17.08,6.5 -3.51,-5.81 -7.37,-11.8 -10.72,-17.59 -0.6,-1.04 -3.26,-5.14 -3.47,-5.86 0.6,-0.66 2.09,-1.8 2.57,-2.69 -1.2,-0.86 -2.21,-2.18 -3.42,-3.04 0.27,-0.57 6.23,-5.46 6.79,-5.89 -1.17,0.26 -14.53,5.48 -16.67,6.28 -1.81,0.67 -1.76,0.33 -2.31,2.27 -0.6,2.12 -1.15,5.48 -1.22,7.79z"/>
   <path class="fil0" d="M53.32 35.77l-0.02 9.23c0.06,0.15 0.58,0.27 0.97,0.65 1.21,1.21 0.65,2.62 1.69,2.69 0.22,-0.57 0.08,-5.14 0.08,-6.15 0,-4.2 -0.78,-6.95 2.02,-7.48 1.21,-0.23 7.32,1.27 14.65,0.2 1.9,-0.28 3.9,-0.51 4.48,1.23 0.6,1.82 -0.33,11.34 0.28,12.23 0.58,-0.13 0.38,-0.05 0.59,-0.71 0.6,-1.88 0.75,-1.53 1.42,-2.49 0.11,-2.18 0.02,-4.6 0.02,-6.81 0,-2.53 0.29,-3.86 -0.76,-5.99 -3.95,-7.99 -18.37,-7.92 -23.23,-1.39 -0.88,1.18 -1.96,3.04 -2.18,4.79z"/>
   <path class="fil1" d="M57.59 68.76c0.12,0.68 2.88,2.33 3.53,2.76l3.81 2.7 3.35 -0.01c1.24,-0.62 4.82,-3.23 6.43,-4.23 1.41,-0.88 1.02,-1.42 1.02,-4.34 0,-1.77 -0.01,-3.55 0,-5.32 -0.03,0.02 -0.07,0.06 -0.09,0.07 -0.64,0.54 -1.27,1.43 -1.88,2.14 -0.65,0.76 -1.31,1.4 -1.98,1.99 -1.17,1.03 -3.11,2.71 -5.23,2.66 -2.09,-0.04 -3.67,-1.51 -5.15,-2.75 -1.45,-1.21 -3.21,-3.66 -3.83,-4.2l0 8.52z"/>
   <path class="fil0" d="M70.75 44.55c-2.04,0.21 -3.33,0.2 -2.3,3.02 0.29,0.79 0.61,1.37 1.34,1.65 0.69,0.27 2.02,0.27 2.79,0.19 1.04,-0.11 1.64,-0.24 2.02,-0.97 0.32,-0.6 0.53,-1.65 0.55,-2.41 0.03,-1.15 -0.49,-1.3 -1.55,-1.43 -0.92,-0.11 -1.92,-0.15 -2.85,-0.05z"/>
   <path class="fil0" d="M60.33 44.55c-0.92,0.1 -1.87,0.1 -1.99,1.04 -0.1,0.81 0.16,1.9 0.42,2.57 0.32,0.82 0.78,1.04 1.8,1.19 0.84,0.12 1.98,0.14 2.8,-0.04 1.88,-0.42 2.14,-3.43 1.93,-3.91 -0.46,-1.04 -3.92,-0.98 -4.96,-0.87z"/>
  </g>
 </g>
</svg>
