<?xml version="1.0" encoding="UTF-8" standalone="no"?> <svg width="64" height="64" viewBox="0 0 64 64" fill="none" xmlns="http://www.w3.org/2000/svg">
<path d="M60 2.5H4C3.60218 2.5 3.22064 2.65804 2.93934 2.93934C2.65804 3.22064 2.5 3.60218 2.5 4V20.14C2.5 20.5378 2.65804 20.9194 2.93934 21.2007C3.22064 21.482 3.60218 21.64 4 21.64H13.36V56.07C13.3626 57.5279 13.943 58.9253 14.9738 59.9562C16.0047 60.987 17.4021 61.5674 18.86 61.57H45.14C46.5979 61.5674 47.9953 60.987 49.0262 59.9562C50.057 58.9253 50.6374 57.5279 50.64 56.07V21.64H60C60.3978 21.64 60.7794 21.482 61.0607 21.2007C61.342 20.9194 61.5 20.5378 61.5 20.14V4C61.5 3.60218 61.342 3.22064 61.0607 2.93934C60.7794 2.65804 60.3978 2.5 60 2.5ZM24.07 53.21C24.07 53.6078 23.912 53.9894 23.6307 54.2707C23.3494 54.552 22.9678 54.71 22.57 54.71C22.1722 54.71 21.7906 54.552 21.5093 54.2707C21.228 53.9894 21.07 53.6078 21.07 53.21V48.81C21.07 48.4122 21.228 48.0306 21.5093 47.7493C21.7906 47.468 22.1722 47.31 22.57 47.31C22.9678 47.31 23.3494 47.468 23.6307 47.7493C23.912 48.0306 24.07 48.4122 24.07 48.81V53.21ZM39.81 58.57H38.64V13.57H39.81V58.57ZM58.5 18.64H50.64V13.57H53.48C53.8778 13.57 54.2594 13.412 54.5407 13.1307C54.822 12.8494 54.98 12.4678 54.98 12.07C54.98 11.6722 54.822 11.2906 54.5407 11.0093C54.2594 10.728 53.8778 10.57 53.48 10.57H10.48C10.0822 10.57 9.70064 10.728 9.41934 11.0093C9.13804 11.2906 8.98 11.6722 8.98 12.07C8.98 12.4678 9.13804 12.8494 9.41934 13.1307C9.70064 13.412 10.0822 13.57 10.48 13.57H13.32V18.64H5.5V5.5H58.5V18.64Z" fill="black"/>
</svg>
