<?xml version="1.0" encoding="UTF-8"?>
<!DOCTYPE svg PUBLIC "-//W3C//DTD SVG 1.1//EN" "http://www.w3.org/Graphics/SVG/1.1/DTD/svg11.dtd">
<!-- Creator: CorelDRAW 2018 (64-Bit) -->
<svg xmlns="http://www.w3.org/2000/svg" xml:space="preserve" width="0.426669in" height="0.426665in" version="1.1" style="shape-rendering:geometricPrecision; text-rendering:geometricPrecision; image-rendering:optimizeQuality; fill-rule:evenodd; clip-rule:evenodd"
viewBox="0 0 49.09 49.09"
 xmlns:xlink="http://www.w3.org/1999/xlink">
 <defs>
  <style type="text/css">
   <![CDATA[
    .fil1 {fill:#FEFEFE}
    .fil0 {fill:#17E2A0}
   ]]>
  </style>
 </defs>
 <g id="Layer_x0020_1">
  <metadata id="CorelCorpID_0Corel-Layer"/>
  <rect class="fil0" x="0" y="0" width="49.09" height="49.09"/>
  <circle class="fil1" cx="24.79" cy="15.61" r="6.89"/>
  <path class="fil1" d="M19.02 24.16c-0.25,-0.15 -0.56,-0.21 -0.88,-0.11 -1.17,0.38 -2.64,1.59 -3.3,2.12 -2.23,2.03 -3.47,4.85 -3.7,7.83 -0.2,2.54 1.39,3.44 3.49,4.39 4.9,2.23 15.41,2.23 20.31,0 2.1,-0.95 3.69,-1.85 3.49,-4.39 -0.23,-2.99 -1.47,-5.81 -3.7,-7.83 -0.67,-0.54 -2.13,-1.75 -3.3,-2.12 -0.32,-0.1 -0.63,-0.04 -0.88,0.11 -4.09,2.47 -7.45,2.47 -11.53,0z"/>
 </g>
</svg>
