<svg xmlns="http://www.w3.org/2000/svg" viewBox="0 0 64 64"><title>Artboard-31</title><g id="Web"><path d="M33.5,41H33v3h.5a1.5,1.5,0,0,0,0-3Z" style="fill:#232328"/><path d="M30.5,36a1.5,1.5,0,0,0,0,3H31V36Z" style="fill:#232328"/><circle cx="20" cy="13" r="1" style="fill:#232328"/><circle cx="6" cy="13" r="1" style="fill:#232328"/><circle cx="13" cy="13" r="1" style="fill:#232328"/><path d="M21,19a5.006,5.006,0,0,0,5-5,1,1,0,0,1,1-1H64V10a5.006,5.006,0,0,0-5-5H5a5.006,5.006,0,0,0-5,5v9ZM28,8H59a1,1,0,0,1,0,2H28a1,1,0,0,1,0-2Zm-8,2a3,3,0,1,1-3,3A3,3,0,0,1,20,10Zm-7,0a3,3,0,1,1-3,3A3,3,0,0,1,13,10ZM6,10a3,3,0,1,1-3,3A3,3,0,0,1,6,10Z" style="fill:#232328"/><path d="M27.929,15A7.011,7.011,0,0,1,21,21H0V54a5.006,5.006,0,0,0,5,5H59a5.006,5.006,0,0,0,5-5V15ZM13.707,43.293a1,1,0,0,1-1.414,1.414l-4-4a1,1,0,0,1,0-1.414l4-4a1,1,0,0,1,1.414,1.414L10.414,40ZM32,52A12,12,0,1,1,44,40,12.013,12.013,0,0,1,32,52ZM55.707,40.707l-4,4a1,1,0,0,1-1.414-1.414L53.586,40l-3.293-3.293a1,1,0,0,1,1.414-1.414l4,4A1,1,0,0,1,55.707,40.707Z" style="fill:#232328"/><path d="M32,30A10,10,0,1,0,42,40,10.011,10.011,0,0,0,32,30Zm1.5,16H33v1a1,1,0,0,1-2,0V46H29a1,1,0,0,1,0-2h2V41h-.5a3.5,3.5,0,0,1,0-7H31V33a1,1,0,0,1,2,0v1h2a1,1,0,0,1,0,2H33v3h.5a3.5,3.5,0,0,1,0,7Z" style="fill:#232328"/></g></svg>
