<?xml version="1.0" encoding="UTF-8"?>
<!DOCTYPE svg PUBLIC "-//W3C//DTD SVG 1.1//EN" "http://www.w3.org/Graphics/SVG/1.1/DTD/svg11.dtd">
<!-- Creator: CorelDRAW 2018 (64-Bit) -->
<svg xmlns="http://www.w3.org/2000/svg" xml:space="preserve" width="0.426669in" height="0.426665in" version="1.1" style="shape-rendering:geometricPrecision; text-rendering:geometricPrecision; image-rendering:optimizeQuality; fill-rule:evenodd; clip-rule:evenodd"
viewBox="0 0 37.84 37.84"
 xmlns:xlink="http://www.w3.org/1999/xlink">
 <defs>
  <style type="text/css">
   <![CDATA[
    .fil0 {fill:#772BED}
    .fil1 {fill:white}
   ]]>
  </style>
 </defs>
 <g id="Layer_x0020_1">
  <metadata id="CorelCorpID_0Corel-Layer"/>
  <g id="_1741793686352">
   <rect class="fil0" x="0" y="0" width="37.84" height="37.84"/>
   <path class="fil1" d="M19.3 21.47c-0.04,0.04 0.02,0 -0.04,0.02l-0.36 0c0.03,0.17 0.01,2.31 0.01,2.75l-0.02 0.12c-0,0 -0.01,0.02 -0.01,0.03 0.07,-0 0.22,-0.02 0.29,0.02 0.16,-0.03 0.49,0.11 0.61,0.18 0.2,0.11 0.32,0.21 0.45,0.35 0.6,0.63 0.6,1.68 -0,2.3 -0.14,0.14 -0.24,0.24 -0.45,0.35 -0.14,0.07 -0.44,0.2 -0.62,0.18 -0.06,0.04 -0.18,0.02 -0.26,0.02 0.05,0.19 0.01,1.18 0.01,1.45 0,0.48 0,0.97 0,1.45l6.57 0c0.11,-0.06 0.48,-0.06 0.77,-0.48 0.2,-0.29 0.2,-0.6 0.26,-0.99l0.67 -4.31c0.04,-0.25 0.31,-2.08 0.34,-2.15l0 -0.32c-0.03,-0.05 -0.04,-0.13 -0.06,-0.19 -0.14,-0.4 -0.54,-0.73 -0.97,-0.74l-6.58 -0 -0.59 0 -0.02 -0.05 -0 0.02z"/>
   <path class="fil1" d="M10.44 22.77c0.05,0.09 0.3,1.86 0.35,2.14l0.67 4.3c0.09,0.56 0.12,1.14 0.78,1.4 0.07,0.03 0.18,0.04 0.24,0.07l6.43 0c0,-0.48 0,-0.97 0,-1.45 0,-0.27 0.03,-1.26 -0.01,-1.45 -0.57,-0.08 -0.81,-0.2 -1.12,-0.51 -0.26,-0.25 -0.49,-0.66 -0.49,-1.17 -0.01,-0.94 0.71,-1.64 1.6,-1.71 0,-0 0.01,-0.02 0.01,-0.03l0.02 -0.12c-0,-0.44 0.02,-2.58 -0.01,-2.75l-0.4 -0 -0.61 0 -6.42 0.01c-0.29,-0.01 -0.56,0.16 -0.7,0.31 -0.09,0.09 -0.15,0.16 -0.22,0.29 -0.07,0.14 -0.07,0.26 -0.12,0.37l0 0.3z"/>
   <path class="fil1" d="M18.91 11.68l0.01 0.01 -0 6.22c0.74,-0.04 1.19,-0.3 1.71,-0.73 0.04,-0.03 0.12,-0.12 0.18,-0.16 0.01,0.13 0.03,0.25 -0.06,0.32 -0.51,0.42 -1.11,0.7 -1.83,0.64l-0 0c-0.01,0.2 -0.02,1.42 0.01,1.54 0.07,-0.11 0.35,-0.35 0.46,-0.47 0.25,-0.25 1.21,-1.26 1.39,-1.42 0.06,-0.09 0.03,-0.18 0.03,-0.32 0,-0.1 -0.01,-0.26 0.02,-0.34l0.35 -0.4c0.21,-0.27 0.43,-0.59 0.58,-0.9 0.04,-0.08 0.21,-0.45 0.24,-0.48 0.07,-0.26 0.09,-0.11 0.26,-0.24 0.09,-0.07 0.17,-0.16 0.21,-0.27 0.1,-0.05 0.21,-0.54 0.24,-0.7 0.02,-0.15 0.02,-0.29 0,-0.44 -0.02,-0.17 -0.06,-0.23 -0.11,-0.36 -0.07,-0.05 -0.1,-0.15 -0.25,-0.14 -0.13,0 -0.18,0.08 -0.27,0.12 -0.06,-0.08 -0.14,-0.15 -0.2,-0.24 -0.06,-0.09 -0.12,-0.16 -0.18,-0.26 -0.11,-0.17 -0.22,-0.38 -0.3,-0.59 -0.21,-0.52 -0.26,-0.86 -0.33,-1.47 -0.03,0.01 -0.2,0.14 -0.23,0.16 -0.25,0.18 -0.46,0.31 -0.75,0.47 -0.26,0.14 -0.85,0.41 -1.17,0.46z"/>
   <path class="fil1" d="M15.15 13.34c0.02,0.13 -0.13,0.42 0.07,1.05 0.1,0.3 0.23,0.54 0.51,0.64l0.02 0.01c0.06,0.03 0.11,0.22 0.15,0.29 0.19,0.42 0.45,0.86 0.73,1.22l0.36 0.42c0.06,0.11 -0.01,0.51 0.03,0.66l0.03 -0c0.07,-0.15 -0.06,-0.39 0.04,-0.52l0.22 0.21c0.06,0.04 -0,0.01 0.07,0.04 0.01,-0.04 -0.01,-0.04 0.06,0.01 0.46,0.33 0.87,0.51 1.47,0.54l0 -6.22c-0.57,0.11 -1.02,0.17 -1.62,0.05 -0.25,-0.05 -0.47,-0.12 -0.68,-0.22 -0.11,-0.05 -0.2,-0.1 -0.3,-0.15 -0.1,-0.06 -0.21,-0.16 -0.27,-0.17 -0.03,0.06 -0.08,0.12 -0.12,0.19 -0.3,0.48 -0.36,1.1 -0.47,1.65 -0.11,0.06 -0.1,0.02 -0.19,0.13 -0.08,0.09 -0.06,0.14 -0.12,0.19z"/>
   <path class="fil0" d="M18.91 11.68c0.32,-0.04 0.91,-0.32 1.17,-0.46 0.29,-0.16 0.49,-0.28 0.75,-0.47 0.03,-0.02 0.2,-0.15 0.23,-0.16 0.07,0.6 0.12,0.95 0.33,1.47 0.09,0.21 0.19,0.42 0.3,0.59 0.06,0.1 0.12,0.18 0.18,0.26 0.07,0.09 0.14,0.17 0.2,0.24 0.09,-0.04 0.14,-0.12 0.27,-0.12 0.15,-0 0.18,0.09 0.25,0.14 0.21,-0.38 0.42,-1.08 0.52,-1.56 0.06,-0.31 0.1,-0.63 0.1,-0.96 -0,-0.36 -0.06,-0.57 -0.14,-0.89 -0.27,-0.7 -0.55,-0.94 -1.21,-1.14 -0.22,-0.06 -0.42,-0.08 -0.63,-0.14 -0.04,-0.01 -0.38,-0.26 -0.47,-0.31 -0.89,-0.56 -1.61,-0.54 -1.73,-0.6l-0.13 0c0.04,0.2 0.01,0.79 0.01,1.03 0,0.39 0.02,2.9 -0.01,3.06z"/>
   <path class="fil0" d="M16.6 8.27l-0.26 0.2c-0.46,0.34 -0.8,0.68 -1.1,1.18 -0.47,0.77 -0.52,1.32 -0.44,2.23 0.03,0.27 0.06,0.54 0.12,0.8 0.1,0.44 0.13,0.39 0.22,0.66 0.06,-0.05 0.05,-0.1 0.12,-0.19 0.09,-0.1 0.08,-0.06 0.19,-0.13 0.11,-0.54 0.17,-1.16 0.47,-1.65 0.04,-0.07 0.1,-0.13 0.12,-0.19 0.06,0.02 0.17,0.11 0.27,0.17 0.09,0.06 0.19,0.11 0.3,0.15 0.21,0.1 0.43,0.17 0.68,0.22 0.59,0.12 1.05,0.06 1.62,-0.05l-0.01 -0.01c0.03,-0.16 0.01,-2.67 0.01,-3.06 0,-0.24 0.03,-0.83 -0.01,-1.03l-0.45 0c-0.07,0.03 -0.57,0.07 -1.02,0.25 -0.44,0.18 -0.66,0.36 -0.84,0.44z"/>
   <path class="fil1" d="M19.92 21.46l0 0.03 6.58 0c-0.07,-0.04 -0.19,-0.02 -0.32,-0.02 -0.49,-1.01 -1.04,-1.19 -1.85,-1.74 -0.15,-0.11 -2.81,-1.72 -2.87,-1.74 -0.03,0.03 0.02,0.13 0.04,0.19l0.89 2.99 -0.91 -0.11 0.24 0.4 -1.79 0z"/>
   <path class="fil1" d="M11.48 21.5l6.42 -0.01 -0.02 -0.04c0.01,0.03 -0.82,0.01 -0.86,0.01 -0.31,0 -0.61,0 -0.92,0l0.23 -0.4 -0.9 0.11c0.02,-0.13 0.08,-0.29 0.12,-0.41 0.12,-0.4 0.82,-2.73 0.81,-2.76 -0.08,0.01 -1.12,0.66 -1.29,0.77 -0.42,0.26 -0.85,0.51 -1.28,0.77 -0.23,0.14 -0.4,0.27 -0.62,0.41 -0.21,0.13 -0.43,0.26 -0.63,0.4 -0.36,0.26 -0.71,0.68 -0.91,1.13l-0.16 0.02z"/>
   <path class="fil0" d="M16.36 18c0.01,0.03 -0.69,2.36 -0.81,2.76 -0.04,0.12 -0.1,0.29 -0.12,0.41l0.9 -0.11 -0.23 0.4c0.31,0 0.61,0 0.92,0 0.04,0 0.87,0.01 0.86,-0.01 0,-0.21 -0.15,-0.57 -0.17,-0.81 -0.05,-0.08 -0.7,-2.99 -0.7,-3.01 -0.04,-0.15 0.03,-0.55 -0.03,-0.66l0 0.64 -0.6 0.36c-0.02,0.02 -0.01,0 -0.03,0.03z"/>
   <path class="fil0" d="M20.78 17.64c0.01,0.02 0.02,0.01 0.01,0.09 -0.01,0.03 -0.02,0.06 -0.02,0.09l-0.3 1.31c-0.05,0.22 -0.31,1.4 -0.35,1.5l-0.04 -0 0.04 0.03 -0.19 0.8 1.79 0 -0.24 -0.4 0.91 0.11 -0.89 -2.99c-0.02,-0.05 -0.06,-0.15 -0.04,-0.19l-0.63 -0.38 0 -0.63c-0.03,0.08 -0.01,0.24 -0.02,0.34 -0,0.13 0.02,0.23 -0.03,0.32z"/>
   <path class="fil0" d="M18.91 27.38l0.2 -0c0.66,-0.09 1.21,-0.63 1.16,-1.38 -0.05,-0.68 -0.62,-1.22 -1.35,-1.19 -0.05,0 -0.06,-0.01 -0.1,0.02l0.09 0.01 0 0.02 -0 2.54z"/>
   <path class="fil0" d="M18.91 27.38l0 -2.54 -0 -0.02 -0.09 -0.01c-0.3,-0.02 -0.69,0.27 -0.81,0.42 -0.18,0.21 -0.33,0.51 -0.32,0.91 0.03,0.67 0.56,1.2 1.22,1.24z"/>
   <path class="fil1" d="M17.72 20.64c0.13,-0.01 0.35,-0.32 0.49,-0.39 0.03,-0.07 0.11,-0.12 0.17,-0.17 0.07,-0.06 0.11,-0.11 0.18,-0.17 0.06,-0.05 0.31,-0.3 0.37,-0.33l0.01 -0.07c-0.07,-0.01 -0.04,-0 -0.09,-0.05l-1.79 -1.84 -0.03 0c-0.01,0.02 0.65,2.93 0.7,3.01z"/>
   <path class="fil1" d="M18.93 19.52l-0.01 0.07 -0.01 0.01c0.07,0.03 0.28,0.25 0.35,0.32 0.06,0.06 0.32,0.27 0.35,0.33 0.12,0.05 0.34,0.36 0.45,0.38l0.04 0c0.04,-0.1 0.3,-1.28 0.35,-1.5l0.3 -1.31c0.01,-0.03 0.02,-0.06 0.02,-0.09 0.02,-0.08 0,-0.07 -0.01,-0.09 -0.18,0.15 -1.15,1.16 -1.39,1.42 -0.11,0.11 -0.38,0.35 -0.46,0.47z"/>
   <path class="fil1" d="M17.05 17.63l1.79 1.84c0.05,0.05 0.02,0.04 0.09,0.05 -0.03,-0.12 -0.02,-1.34 -0.01,-1.54 -0.53,-0.02 -0.98,-0.23 -1.39,-0.53 -0.04,-0.03 -0.1,-0.1 -0.15,-0.09 -0.07,-0.02 -0.01,0 -0.07,-0.04l-0.22 -0.21c-0.11,0.13 0.02,0.37 -0.04,0.52z"/>
   <path class="fil1" d="M19.3 21.45l0.02 0.05 0.59 -0 -0 -0.03 0.19 -0.8 -0.04 -0.03c-0.11,-0.02 -0.33,-0.33 -0.45,-0.38 -0.05,0.05 -0.36,0.42 -0.37,0.46 -0.02,0.06 0.06,0.62 0.06,0.74z"/>
   <path class="fil1" d="M17.72 20.64c0.02,0.24 0.17,0.6 0.17,0.81l0.02 0.04 0.61 -0c0.01,-0.14 0.08,-0.68 0.07,-0.77 -0.01,-0.05 -0.32,-0.42 -0.37,-0.47 -0.13,0.07 -0.35,0.38 -0.49,0.39z"/>
   <path class="fil0" d="M18.2 20.25c0.05,0.05 0.37,0.42 0.37,0.47 0.02,0.09 -0.06,0.64 -0.07,0.77l0.4 0 0.36 -0c0.05,-0.02 -0.01,0.02 0.04,-0.02l-0.39 -0 -0 -1.87 0.01 -0.01c-0.06,0.02 -0.31,0.27 -0.37,0.33 -0.07,0.06 -0.11,0.11 -0.18,0.17 -0.06,0.05 -0.14,0.1 -0.17,0.17z"/>
   <path class="fil0" d="M19.3 21.47l0 -0.02c-0.01,-0.12 -0.08,-0.68 -0.06,-0.74 0.01,-0.04 0.32,-0.4 0.37,-0.46 -0.03,-0.06 -0.28,-0.27 -0.35,-0.33 -0.07,-0.07 -0.28,-0.29 -0.35,-0.32l0 1.87 0.39 0z"/>
   <path class="fil1" d="M18.91 17.91l0 0.07c0.72,0.05 1.32,-0.22 1.83,-0.64 0.09,-0.07 0.06,-0.18 0.06,-0.32 -0.06,0.04 -0.14,0.13 -0.18,0.16 -0.51,0.43 -0.97,0.69 -1.71,0.73z"/>
   <path class="fil1" d="M18.92 17.98l0 -0 -0 -0.07c-0.61,-0.03 -1.01,-0.21 -1.47,-0.54 -0.07,-0.05 -0.05,-0.05 -0.06,-0.01 0.05,-0.01 0.11,0.06 0.15,0.09 0.41,0.3 0.86,0.51 1.39,0.53z"/>
  </g>
 </g>
</svg>
