<?xml version="1.0" encoding="UTF-8"?>
<!DOCTYPE svg PUBLIC "-//W3C//DTD SVG 1.1//EN" "http://www.w3.org/Graphics/SVG/1.1/DTD/svg11.dtd">
<!-- Creator: CorelDRAW 2018 (64-Bit) -->
<svg xmlns="http://www.w3.org/2000/svg" xml:space="preserve" width="0.426669in" height="0.426665in" version="1.1" style="shape-rendering:geometricPrecision; text-rendering:geometricPrecision; image-rendering:optimizeQuality; fill-rule:evenodd; clip-rule:evenodd"
viewBox="0 0 74.6 74.6"
 xmlns:xlink="http://www.w3.org/1999/xlink">
 <defs>
  <style type="text/css">
   <![CDATA[
    .fil0 {fill:#A9ABAE}
    .fil2 {fill:#242283}
    .fil1 {fill:white}
   ]]>
  </style>
 </defs>
 <g id="Layer_x0020_1">
  <metadata id="CorelCorpID_0Corel-Layer"/>
  <g id="_1702148825056">
   <rect class="fil0" x="0" y="0" width="74.6" height="74.6"/>
   <g>
    <path class="fil0" d="M36.65 39.14c0.23,-0.13 0.24,-0.11 0.59,-0.13 0.23,-0.01 0.46,0.01 0.69,0.02 1.14,0.04 2.86,-0.25 3.34,0.93 0.28,0.68 0.32,1.69 0.1,2.41 -0.28,0.94 -0.84,1.03 -1.89,0.78 -0.23,-0.44 0.24,-2.06 -0.21,-2.29l-1.35 -0.09c-0.75,0.08 -0.94,-0.15 -0.97,0.68 -0.02,0.54 0.16,1.2 0.04,1.69 -1.61,0.32 -2.07,-0.19 -2.08,-1.78 -0,-1.2 0.44,-2.43 1.73,-2.21zm0.89 -15.58c1.51,0.09 2.82,0.1 4.27,-0.19 1.22,-0.24 2.3,-0.69 3.47,-0.9 1.51,-0.27 1.66,1.13 1.75,2.49 0.09,1.38 0,2.91 0.04,4.34 0.06,2.16 0.28,9.97 -2.3,10.82 -1.87,0.62 -1.61,-1.18 -1.99,-2.27 -0.58,-0.11 -1.74,-0.09 -2.43,-0.11 -0.98,-0.04 -1.43,-0.23 -2.05,0.35 -1.03,-0.29 0.23,-0.4 -2.04,-0.36 -0.77,0.01 -1.57,0 -2.33,0.05 -0.22,0.3 -0.44,1.08 -0.63,1.49 -0.21,0.45 -0.56,1.06 -1.12,1.15 -1.21,0.2 -1.87,-1.27 -2.18,-2.23 -0.94,-2.86 -1,-8.62 -1.09,-12 -0.04,-1.57 -0.41,-2.81 1.01,-3.34 1.48,-0.55 5.87,0.45 7.61,0.71zm-9.41 7.96l-0.01 0.32c0.21,0.99 -0.08,5.35 0.29,7.66 0.45,2.79 2.66,3.71 3.36,4.59l0.57 0.4 1.08 0.63c0.09,0.02 0.17,0.03 0.27,0.07 0.43,0.18 0.04,0.01 0.22,0.12l0.13 0.12c0.63,0.17 1.25,0.49 1.94,0.69 0.74,0.21 1.35,0.29 2.14,0.4 1.77,0.06 2.23,-0.16 3.72,-0.6l0.68 -0.32c0.2,-0.19 1.11,-0.75 1.31,-0.82 0.21,-0.27 0.36,-0.38 0.69,-0.52 0.15,-0.29 0.97,-0.93 1.27,-1.26 0.37,-0.4 0.75,-0.88 1.06,-1.46 0.66,-1.24 0.92,-2.7 0.88,-4.27l0.21 -5.62 0.49 -8.83c0.08,-1.16 -0.08,-1.52 -0.58,-2.39 -1.13,-1.99 -2.42,-3.81 -3.75,-5.59 -0.38,-0.5 -1.07,-1.31 -1.34,-1.84 -0.23,-0.09 -0.26,-0.26 -0.53,-0.59l-0.25 0.45c-0.48,-0.19 -0.49,-0.99 -1.61,-1.35 0.04,0.38 0.07,0.57 -0.05,0.86 -0.66,-0.09 -0.24,-1.17 -1.79,-1.64l0.23 0.76c-0.02,0.35 0.01,0.41 -0.18,0.67 -0.12,-0.11 -0.47,-0.6 -0.63,-0.85 -0.39,-0.19 -0.85,-0.57 -1.48,-0.57 0.08,0.83 0.22,1.2 0.02,1.97 -0.3,-0.03 -0.41,-0.04 -0.64,-0.22l-0.33 -0.38c-0.01,-0.04 -0.03,-0.04 -0.05,-0.06 -0.44,0.26 -2.97,3.02 -3.57,3.76l-2.6 2.94c-0.33,0.35 -0.54,0.63 -0.83,0.92 -3.58,3.66 0.05,3.77 -0.37,11.84z"/>
    <path class="fil1" d="M38.31 38.09c-0.17,-0.93 -0.07,-13.11 -0.06,-14.33 -0.44,-0 -0.47,0 -0.71,-0.2 -1.75,-0.26 -6.13,-1.26 -7.61,-0.71 -1.42,0.53 -1.06,1.77 -1.01,3.34 0.09,3.38 0.16,9.13 1.09,12 0.31,0.96 0.97,2.43 2.18,2.23 0.56,-0.09 0.91,-0.7 1.12,-1.15 0.19,-0.41 0.41,-1.19 0.63,-1.49 0.76,-0.05 1.57,-0.04 2.33,-0.05 2.26,-0.04 1.01,0.07 2.04,0.36z"/>
    <path class="fil1" d="M37.54 23.56c0.23,0.2 0.26,0.2 0.71,0.2 -0.01,1.22 -0.11,13.4 0.06,14.33 0.62,-0.58 1.06,-0.38 2.05,-0.35 0.7,0.02 1.85,0 2.43,0.11 0.37,1.09 0.11,2.89 1.99,2.27 2.58,-0.86 2.36,-8.66 2.3,-10.82 -0.04,-1.42 0.05,-2.96 -0.04,-4.34 -0.09,-1.36 -0.24,-2.76 -1.75,-2.49 -1.17,0.21 -2.24,0.66 -3.47,0.9 -1.46,0.29 -2.76,0.28 -4.27,0.19z"/>
    <path class="fil1" d="M43.84 44.78c0.3,0.25 3.23,4.43 3.35,4.78 -0.42,0.18 -0.95,0.59 -1.41,0.91 -0.26,0.18 -1.18,0.76 -1.34,0.99 0.44,0.76 1.9,2.55 2.15,3.11 -0.34,0.84 -1.81,3.43 -2.39,4.51 -0.15,0.28 -0.27,0.48 -0.42,0.76 -0.13,0.25 -0.29,0.47 -0.24,0.61 1.7,0.08 6.42,-2.01 7.75,-2.73 1.17,-0.64 2.26,-1.32 3.22,-2.03 0.66,-0.48 2.46,-1.89 2.79,-2.37 -0.05,-0.8 0.14,-2 -0.29,-2.47 -1.96,-2.12 -9.9,-5.47 -12.48,-6.6 -0.33,0.14 -0.48,0.25 -0.69,0.52z"/>
    <path class="fil1" d="M18.67 53.33c0.28,0.42 2.19,1.95 2.83,2.4 1.05,0.74 2,1.34 3.23,2.02 1.41,0.78 5.92,2.71 7.74,2.73l-3.12 -5.91c0.31,-0.67 2,-2.65 2.17,-3.23 -0.9,-0.42 -1.89,-1.42 -2.76,-1.78 0.11,-0.32 3.35,-4.98 3.59,-5.07l-0.57 -0.4c-0.52,0.34 -7.66,3.17 -11.24,5.53 -2.31,1.52 -1.8,1.47 -1.87,3.7z"/>
    <path class="fil0" d="M32.47 60.49c0.43,0.25 1.28,0.28 1.87,0.35l-0.6 -8.51c-0.14,-0.38 -0.33,-6.35 -0.31,-7.2l-1.08 -0.63c-0.24,0.09 -3.48,4.76 -3.59,5.07 0.87,0.37 1.86,1.36 2.76,1.78 -0.17,0.58 -1.86,2.57 -2.17,3.23l3.12 5.91z"/>
    <path class="fil0" d="M42.52 45.6l-0.07 5.91 -0.83 9.33c0.37,-0.05 0.69,-0.1 1.07,-0.16 0.15,-0.02 0.39,-0.06 0.51,-0.09 0.36,-0.09 0.16,0.01 0.34,-0.14 -0.05,-0.14 0.11,-0.37 0.24,-0.61 0.15,-0.28 0.27,-0.48 0.42,-0.76 0.58,-1.08 2.05,-3.67 2.39,-4.51 -0.24,-0.56 -1.71,-2.35 -2.15,-3.11 0.16,-0.22 1.09,-0.81 1.34,-0.99 0.46,-0.32 0.99,-0.73 1.41,-0.91 -0.12,-0.35 -3.05,-4.53 -3.35,-4.78 -0.21,0.07 -1.12,0.64 -1.31,0.82z"/>
    <path class="fil1" d="M38.72 52.07l0.76 8.92 0.71 -0.02 1.42 -0.12 0.83 -9.33c-0.77,-0.2 -1.46,-0.91 -2.24,-1.13 -0.34,0.74 -0.92,1.23 -1.48,1.68z"/>
    <path class="fil1" d="M33.75 52.32l0.6 8.51 1.55 0.14 0.72 0.01 0.63 -8.26c0.05,-0.97 -0.22,-0.63 -0.71,-1.24 -0.25,-0.32 -0.44,-0.64 -0.65,-1.02 -0.44,-0.05 -1.75,0.84 -2.18,1.1l0.03 0.76z"/>
    <path class="fil0" d="M37.25 52.72l-0.63 8.26 -0.72 -0.01c0.32,0.18 4,0.2 4.3,-0.02l-0.71 0.02 -0.76 -8.92c-0.37,0.18 -0.88,0.31 -1.25,0.07l-0.22 0.59z"/>
    <path class="fil1" d="M33.75 52.32l-0.03 -0.76c0.43,-0.25 1.73,-1.15 2.18,-1.1 0.09,-0.17 -0.03,-0.17 0.53,-0.42 0.43,-0.19 1.42,-0.55 1.62,-0.94 -0.16,0.01 -0.12,0.05 -0.12,-0.11 -0.38,-0.06 -2.07,-1.12 -2.55,-1.4 -0.9,-0.52 -0.74,-0.53 -1.35,-1.66 -0.39,-0.72 -0.3,-0.51 -0.11,-0.62 -0.18,-0.11 0.21,0.06 -0.22,-0.12 -0.09,-0.04 -0.17,-0.05 -0.27,-0.07 -0.02,0.85 0.17,6.81 0.31,7.2z"/>
    <path class="fil1" d="M41.84 45.92l-0.2 0.43c-0.36,0.95 -0.74,1.07 -1.52,1.57 -0.4,0.25 -1.56,1.06 -1.92,1.18 0.17,0.31 0.52,0.4 1.02,0.68 0.3,0.17 0.83,0.38 0.99,0.61 0.79,0.22 1.48,0.93 2.24,1.13l0.07 -5.91 -0.68 0.32z"/>
    <path class="fil1" d="M47.96 31.65l-0.21 5.62c0.39,-0.16 1.06,-0.62 1.31,-0.92 0.5,-0.59 1.43,-5 0.46,-5.44 -0.73,-0.21 -1.22,0.32 -1.56,0.74z"/>
    <path class="fil1" d="M37.93 40.76l1.35 0.09c0.45,0.22 -0.02,1.85 0.21,2.29 1.04,0.26 1.6,0.16 1.89,-0.78 0.22,-0.73 0.17,-1.74 -0.1,-2.41 -0.48,-1.18 -2.2,-0.89 -3.34,-0.93 -0.23,-0.01 -0.46,-0.03 -0.69,-0.02 -0.35,0.02 -0.36,-0.01 -0.59,0.13 0.49,0.13 1.07,0.07 1.59,0.07l0.02 1.36c-0.68,-0.01 -0.07,-0.03 -0.33,0.18z"/>
    <path class="fil1" d="M28.12 31.84l0.01 -0.32c-0.37,-0.24 -0.83,-0.87 -1.58,-0.6 -0.72,0.64 -0.24,2.72 -0.06,3.69 0.24,1.27 0.42,2.03 1.69,2.62l-0.05 -5.38z"/>
    <path class="fil1" d="M37.93 40.76c0.26,-0.21 -0.36,-0.19 0.33,-0.18l-0.02 -1.36c-0.52,-0 -1.1,0.06 -1.59,-0.07 -1.29,-0.22 -1.73,1.01 -1.73,2.21 0.01,1.6 0.46,2.11 2.08,1.78 0.11,-0.49 -0.06,-1.15 -0.04,-1.69 0.04,-0.83 0.22,-0.61 0.97,-0.68z"/>
    <path class="fil0" d="M35.89 50.46c0.21,0.38 0.39,0.7 0.65,1.02 0.49,0.61 0.76,0.27 0.71,1.24l0.22 -0.59c0.38,0.25 0.88,0.11 1.25,-0.07 0.56,-0.45 1.14,-0.94 1.48,-1.68 -0.16,-0.23 -0.69,-0.44 -0.99,-0.61 -0.5,-0.28 -0.85,-0.37 -1.02,-0.68l-0.15 0.01c-0.21,0.39 -1.2,0.75 -1.62,0.94 -0.55,0.24 -0.43,0.25 -0.53,0.42z"/>
    <path class="fil1" d="M37.92 49c0,0.16 -0.04,0.12 0.12,0.11l0.15 -0.01c0.36,-0.12 1.52,-0.93 1.92,-1.18 0.78,-0.5 1.16,-0.62 1.52,-1.57 -0.2,-0.13 0.03,-0.05 -0.16,-0.03 -0.31,0.03 -1.53,0.96 -3.33,1.03l-0.02 -0.82c-0.79,-0.11 -1.41,-0.2 -2.14,-0.4 -0.7,-0.19 -1.31,-0.52 -1.94,-0.69 0.15,0.4 0.06,0.21 0.42,0.47 1.09,0.76 2.32,1.33 3.7,1.48l0.01 1.56c-0.15,0.1 0.17,0.18 -0.25,0.06z"/>
    <path class="fil1" d="M37.92 49c0.42,0.12 0.09,0.04 0.25,-0.06l-0.01 -1.56c-1.38,-0.14 -2.6,-0.72 -3.7,-1.48 -0.37,-0.25 -0.27,-0.07 -0.42,-0.47l-0.13 -0.12c-0.19,0.12 -0.28,-0.1 0.11,0.62 0.61,1.13 0.46,1.14 1.35,1.66 0.48,0.28 2.17,1.34 2.55,1.4z"/>
    <path class="fil1" d="M38.12 46.52l0.02 0.82c1.8,-0.07 3.02,-1 3.33,-1.03 0.19,-0.02 -0.04,-0.09 0.16,0.03l0.2 -0.43c-1.48,0.44 -1.94,0.67 -3.72,0.6z"/>
    <path class="fil2" d="M38.79 11.5c-0.38,-0 -0.4,-0.12 -0.81,-0.18 0.16,0.25 0.51,0.74 0.63,0.85 0.19,-0.26 0.16,-0.32 0.18,-0.67z"/>
   </g>
  </g>
 </g>
</svg>
