<?xml version="1.0" encoding="UTF-8"?>
<!DOCTYPE svg PUBLIC "-//W3C//DTD SVG 1.1//EN" "http://www.w3.org/Graphics/SVG/1.1/DTD/svg11.dtd">
<!-- Creator: CorelDRAW 2018 (64-Bit) -->
<svg xmlns="http://www.w3.org/2000/svg" xml:space="preserve" width="0.426669in" height="0.426665in" version="1.1" style="shape-rendering:geometricPrecision; text-rendering:geometricPrecision; image-rendering:optimizeQuality; fill-rule:evenodd; clip-rule:evenodd"
viewBox="0 0 51.66 51.66"
 xmlns:xlink="http://www.w3.org/1999/xlink">
 <defs>
  <style type="text/css">
   <![CDATA[
    .fil0 {fill:#17E2A0}
    .fil1 {fill:white}
   ]]>
  </style>
 </defs>
 <g id="Layer_x0020_1">
  <metadata id="CorelCorpID_0Corel-Layer"/>
  <g id="_1700599184960">
   <rect class="fil0" x="0" y="0" width="51.66" height="51.66"/>
   <path class="fil0" d="M25.38 27.1c0.16,-0.09 0.17,-0.08 0.41,-0.09 0.16,-0.01 0.32,0.01 0.48,0.01 0.79,0.03 1.98,-0.18 2.31,0.64 0.19,0.47 0.22,1.17 0.07,1.67 -0.2,0.65 -0.58,0.72 -1.31,0.54 -0.16,-0.31 0.17,-1.43 -0.14,-1.58l-0.93 -0.07c-0.52,0.05 -0.65,-0.1 -0.67,0.47 -0.02,0.38 0.11,0.83 0.03,1.17 -1.12,0.22 -1.43,-0.13 -1.44,-1.24 -0,-0.83 0.3,-1.68 1.2,-1.53zm0.62 -10.79c1.05,0.06 1.95,0.07 2.96,-0.13 0.85,-0.17 1.59,-0.48 2.4,-0.62 1.04,-0.19 1.15,0.78 1.21,1.73 0.06,0.96 0,2.02 0.03,3 0.04,1.5 0.2,6.9 -1.59,7.5 -1.3,0.43 -1.12,-0.82 -1.38,-1.57 -0.4,-0.08 -1.2,-0.06 -1.68,-0.08 -0.68,-0.02 -0.99,-0.16 -1.42,0.24 -0.71,-0.2 0.16,-0.28 -1.41,-0.25 -0.53,0.01 -1.09,0 -1.62,0.03 -0.15,0.21 -0.3,0.75 -0.44,1.03 -0.15,0.31 -0.39,0.73 -0.78,0.8 -0.84,0.14 -1.3,-0.88 -1.51,-1.54 -0.65,-1.98 -0.69,-5.97 -0.76,-8.31 -0.03,-1.08 -0.28,-1.94 0.7,-2.31 1.03,-0.38 4.06,0.31 5.27,0.49zm-6.51 5.51l-0.01 0.22c0.15,0.69 -0.06,3.7 0.2,5.3 0.31,1.93 1.84,2.57 2.33,3.18l0.4 0.28 0.75 0.44c0.07,0.02 0.12,0.02 0.18,0.05 0.3,0.12 0.03,0.01 0.15,0.08l0.09 0.08c0.44,0.12 0.86,0.34 1.34,0.48 0.51,0.14 0.94,0.2 1.48,0.28 1.23,0.04 1.55,-0.11 2.57,-0.42l0.47 -0.22c0.14,-0.13 0.77,-0.52 0.91,-0.57 0.15,-0.19 0.25,-0.26 0.48,-0.36 0.1,-0.2 0.67,-0.65 0.88,-0.87 0.26,-0.27 0.52,-0.61 0.74,-1.01 0.46,-0.86 0.63,-1.87 0.61,-2.96l0.15 -3.89 0.34 -6.12c0.05,-0.8 -0.06,-1.05 -0.4,-1.65 -0.79,-1.38 -1.67,-2.64 -2.59,-3.87 -0.26,-0.35 -0.74,-0.91 -0.93,-1.27 -0.16,-0.06 -0.18,-0.18 -0.36,-0.41l-0.17 0.31c-0.33,-0.13 -0.34,-0.69 -1.11,-0.94 0.03,0.26 0.05,0.39 -0.04,0.59 -0.45,-0.06 -0.16,-0.81 -1.24,-1.14l0.16 0.53c-0.01,0.24 0.01,0.29 -0.13,0.47 -0.09,-0.08 -0.32,-0.42 -0.44,-0.59 -0.27,-0.13 -0.59,-0.39 -1.03,-0.39 0.06,0.57 0.15,0.83 0.01,1.37 -0.21,-0.02 -0.29,-0.03 -0.44,-0.15l-0.23 -0.26c-0.01,-0.02 -0.02,-0.03 -0.03,-0.04 -0.3,0.18 -2.05,2.09 -2.47,2.6l-1.8 2.04c-0.23,0.24 -0.38,0.44 -0.57,0.64 -2.48,2.54 0.04,2.61 -0.25,8.2z"/>
   <path class="fil1" d="M26.53 26.38c0.43,-0.4 0.74,-0.27 1.42,-0.24 0.48,0.02 1.28,0 1.68,0.08 0.26,0.75 0.08,2 1.38,1.57 1.79,-0.59 1.63,-6 1.59,-7.5 -0.03,-0.99 0.03,-2.05 -0.03,-3 -0.06,-0.94 -0.17,-1.91 -1.21,-1.73 -0.81,0.15 -1.55,0.46 -2.4,0.62 -1.01,0.2 -1.91,0.19 -2.96,0.13 -1.21,-0.18 -4.25,-0.87 -5.27,-0.49 -0.99,0.37 -0.73,1.23 -0.7,2.31 0.07,2.34 0.11,6.32 0.76,8.31 0.22,0.66 0.67,1.68 1.51,1.54 0.39,-0.06 0.63,-0.49 0.78,-0.8 0.13,-0.28 0.29,-0.82 0.44,-1.03 0.53,-0.03 1.08,-0.03 1.62,-0.03 1.57,-0.03 0.7,0.05 1.41,0.25z"/>
   <path class="fil1" d="M30.36 31.01c0.21,0.17 2.24,3.07 2.32,3.31 -0.29,0.12 -0.66,0.41 -0.97,0.63 -0.18,0.12 -0.82,0.53 -0.93,0.69 0.3,0.53 1.32,1.77 1.49,2.15 -0.24,0.58 -1.26,2.37 -1.66,3.12 -0.1,0.19 -0.18,0.33 -0.29,0.53 -0.09,0.17 -0.2,0.33 -0.17,0.42 1.18,0.05 4.44,-1.39 5.37,-1.89 0.81,-0.44 1.56,-0.92 2.23,-1.4 0.46,-0.34 1.7,-1.31 1.93,-1.64 -0.03,-0.55 0.1,-1.39 -0.2,-1.71 -1.36,-1.47 -6.85,-3.79 -8.64,-4.57 -0.23,0.09 -0.33,0.17 -0.48,0.36z"/>
   <path class="fil1" d="M12.93 36.93c0.19,0.29 1.51,1.35 1.96,1.66 0.73,0.51 1.38,0.93 2.23,1.4 0.98,0.54 4.1,1.88 5.36,1.89l-2.16 -4.09c0.21,-0.46 1.38,-1.84 1.5,-2.24 -0.62,-0.29 -1.31,-0.98 -1.91,-1.23 0.08,-0.22 2.32,-3.45 2.48,-3.51l-0.4 -0.28c-0.36,0.24 -5.3,2.2 -7.79,3.83 -1.6,1.05 -1.24,1.02 -1.29,2.57z"/>
   <path class="fil0" d="M22.49 41.89c0.3,0.17 0.89,0.19 1.3,0.24l-0.41 -5.9c-0.1,-0.27 -0.23,-4.4 -0.22,-4.98l-0.75 -0.44c-0.16,0.07 -2.41,3.29 -2.48,3.51 0.6,0.25 1.29,0.94 1.91,1.23 -0.12,0.4 -1.29,1.78 -1.5,2.24l2.16 4.09z"/>
   <path class="fil0" d="M29.44 31.58l-0.05 4.09 -0.58 6.46c0.26,-0.04 0.48,-0.07 0.74,-0.11 0.1,-0.02 0.27,-0.04 0.35,-0.06 0.25,-0.06 0.11,0.01 0.24,-0.1 -0.04,-0.1 0.08,-0.25 0.17,-0.42 0.1,-0.2 0.18,-0.33 0.29,-0.53 0.4,-0.75 1.42,-2.54 1.66,-3.12 -0.17,-0.39 -1.18,-1.63 -1.49,-2.15 0.11,-0.16 0.75,-0.56 0.93,-0.69 0.32,-0.22 0.68,-0.5 0.97,-0.63 -0.08,-0.24 -2.11,-3.14 -2.32,-3.31 -0.14,0.05 -0.77,0.44 -0.91,0.57z"/>
   <path class="fil1" d="M26.82 36.06l0.53 6.17 0.49 -0.02 0.99 -0.08 0.58 -6.46c-0.53,-0.14 -1.01,-0.63 -1.55,-0.78 -0.24,0.52 -0.64,0.86 -1.03,1.17z"/>
   <path class="fil1" d="M23.37 36.23l0.41 5.9 1.07 0.1 0.5 0.01 0.44 -5.72c0.03,-0.67 -0.15,-0.43 -0.49,-0.86 -0.18,-0.22 -0.3,-0.44 -0.45,-0.71 -0.31,-0.03 -1.21,0.58 -1.51,0.76l0.02 0.53z"/>
   <path class="fil0" d="M25.79 36.51l-0.44 5.72 -0.5 -0.01c0.22,0.13 2.77,0.14 2.98,-0.01l-0.49 0.02 -0.53 -6.17c-0.26,0.12 -0.61,0.22 -0.87,0.05l-0.15 0.41z"/>
   <path class="fil1" d="M23.37 36.23l-0.02 -0.53c0.3,-0.18 1.2,-0.79 1.51,-0.76 0.06,-0.12 -0.02,-0.12 0.36,-0.29 0.3,-0.13 0.98,-0.38 1.13,-0.65 -0.11,0.01 -0.08,0.04 -0.08,-0.07 -0.26,-0.04 -1.43,-0.77 -1.77,-0.97 -0.62,-0.36 -0.51,-0.37 -0.94,-1.15 -0.27,-0.5 -0.21,-0.35 -0.07,-0.43 -0.12,-0.07 0.15,0.04 -0.15,-0.08 -0.07,-0.03 -0.12,-0.03 -0.18,-0.05 -0.01,0.59 0.12,4.72 0.22,4.98z"/>
   <path class="fil1" d="M28.97 31.8l-0.14 0.3c-0.25,0.66 -0.51,0.74 -1.05,1.09 -0.28,0.18 -1.08,0.74 -1.33,0.82 0.12,0.21 0.36,0.28 0.71,0.47 0.21,0.12 0.57,0.26 0.68,0.42 0.54,0.15 1.02,0.64 1.55,0.78l0.05 -4.09 -0.47 0.22z"/>
   <path class="fil1" d="M33.21 21.92l-0.15 3.89c0.27,-0.11 0.73,-0.43 0.91,-0.64 0.35,-0.41 0.99,-3.46 0.32,-3.77 -0.51,-0.14 -0.85,0.22 -1.08,0.51z"/>
   <path class="fil1" d="M26.26 28.23l0.93 0.07c0.31,0.15 -0.02,1.28 0.14,1.58 0.72,0.18 1.11,0.11 1.31,-0.54 0.15,-0.5 0.12,-1.2 -0.07,-1.67 -0.33,-0.82 -1.52,-0.62 -2.31,-0.64 -0.16,-0 -0.32,-0.02 -0.48,-0.01 -0.24,0.01 -0.25,-0 -0.41,0.09 0.34,0.09 0.74,0.05 1.1,0.05l0.01 0.94c-0.47,-0.01 -0.05,-0.02 -0.23,0.13z"/>
   <path class="fil1" d="M19.47 22.05l0.01 -0.22c-0.25,-0.17 -0.58,-0.6 -1.09,-0.42 -0.5,0.44 -0.17,1.88 -0.04,2.56 0.16,0.88 0.29,1.41 1.17,1.81l-0.04 -3.73z"/>
   <path class="fil1" d="M26.26 28.23c0.18,-0.15 -0.25,-0.13 0.23,-0.13l-0.01 -0.94c-0.36,-0 -0.76,0.04 -1.1,-0.05 -0.89,-0.15 -1.2,0.7 -1.2,1.53 0,1.11 0.32,1.46 1.44,1.24 0.08,-0.34 -0.04,-0.8 -0.03,-1.17 0.02,-0.57 0.15,-0.42 0.67,-0.47z"/>
   <path class="fil0" d="M24.85 34.95c0.14,0.26 0.27,0.49 0.45,0.71 0.34,0.42 0.52,0.18 0.49,0.86l0.15 -0.41c0.26,0.17 0.61,0.08 0.87,-0.05 0.39,-0.31 0.79,-0.65 1.03,-1.17 -0.11,-0.16 -0.48,-0.3 -0.68,-0.42 -0.35,-0.19 -0.59,-0.26 -0.71,-0.47l-0.11 0c-0.14,0.27 -0.83,0.52 -1.13,0.65 -0.38,0.17 -0.3,0.17 -0.36,0.29z"/>
   <path class="fil1" d="M26.26 33.93c0,0.11 -0.03,0.08 0.08,0.07l0.11 -0c0.25,-0.08 1.05,-0.64 1.33,-0.82 0.54,-0.34 0.81,-0.43 1.05,-1.09 -0.14,-0.09 0.02,-0.03 -0.11,-0.02 -0.22,0.02 -1.06,0.66 -2.31,0.71l-0.02 -0.57c-0.55,-0.08 -0.97,-0.14 -1.48,-0.28 -0.48,-0.13 -0.91,-0.36 -1.34,-0.48 0.1,0.28 0.04,0.15 0.29,0.32 0.76,0.52 1.6,0.92 2.56,1.02l0.01 1.08c-0.11,0.07 0.12,0.13 -0.17,0.04z"/>
   <path class="fil1" d="M26.26 33.93c0.29,0.08 0.07,0.03 0.17,-0.04l-0.01 -1.08c-0.96,-0.1 -1.8,-0.5 -2.56,-1.02 -0.25,-0.18 -0.19,-0.05 -0.29,-0.32l-0.09 -0.08c-0.13,0.08 -0.2,-0.07 0.07,0.43 0.42,0.78 0.32,0.79 0.94,1.15 0.33,0.19 1.5,0.93 1.77,0.97z"/>
   <path class="fil1" d="M26.4 32.22l0.02 0.57c1.25,-0.05 2.09,-0.69 2.31,-0.71 0.13,-0.01 -0.02,-0.07 0.11,0.02l0.14 -0.3c-1.03,0.31 -1.35,0.46 -2.57,0.42z"/>
   <path class="fil0" d="M29 19.65c-1.19,0.12 -1.94,0.11 -1.34,1.76 0.17,0.46 0.36,0.8 0.78,0.96 0.4,0.16 1.18,0.16 1.63,0.11 0.6,-0.07 0.95,-0.14 1.18,-0.57 0.18,-0.35 0.31,-0.96 0.32,-1.4 0.02,-0.67 -0.28,-0.76 -0.9,-0.83 -0.53,-0.07 -1.12,-0.08 -1.66,-0.03z"/>
   <path class="fil0" d="M22.62 19.65c-0.53,0.06 -1.09,0.06 -1.16,0.61 -0.06,0.47 0.09,1.11 0.25,1.5 0.19,0.48 0.45,0.61 1.05,0.7 0.49,0.07 1.15,0.08 1.63,-0.02 1.09,-0.25 1.25,-1.99 1.12,-2.27 -0.27,-0.61 -2.28,-0.57 -2.89,-0.5z"/>
  </g>
 </g>
</svg>
