<?xml version="1.0" encoding="UTF-8"?>
<!DOCTYPE svg PUBLIC "-//W3C//DTD SVG 1.1//EN" "http://www.w3.org/Graphics/SVG/1.1/DTD/svg11.dtd">
<!-- Creator: CorelDRAW 2018 (64-Bit) -->
<svg xmlns="http://www.w3.org/2000/svg" xml:space="preserve" width="0.426669in" height="0.426665in" version="1.1" style="shape-rendering:geometricPrecision; text-rendering:geometricPrecision; image-rendering:optimizeQuality; fill-rule:evenodd; clip-rule:evenodd"
viewBox="0 0 763.06 763.05"
 xmlns:xlink="http://www.w3.org/1999/xlink">
 <defs>
  <style type="text/css">
   <![CDATA[
    .fil0 {fill:#772BED}
    .fil1 {fill:white}
   ]]>
  </style>
 </defs>
 <g id="Layer_x0020_1">
  <metadata id="CorelCorpID_0Corel-Layer"/>
  <rect class="fil0" x="0" y="0" width="763.05" height="763.05"/>
  <path class="fil1" d="M410.56 587.13c34.64,-2.96 75.25,-22.1 98.02,-37.82 19.33,-13.35 38.35,-30.91 52.57,-49.1 2.62,-3.34 4.7,-6.01 7.1,-9.58 2.5,-3.72 5.95,-6.51 5.69,-12.26 -1.49,-14.86 -6.08,-27.81 -10.62,-40.75 -4.82,-13.71 -4.86,-9.94 -32.11,-20.48 -11.67,-4.51 -69.07,-26.69 -76.49,-28.46 2.37,2.97 6.67,5.93 9.65,8.69l9.16 8.36c4.1,4.1 16.04,13.83 17.99,17.14 -2.04,2.25 -12.42,11.39 -15.5,12.82 1.32,3.49 5.14,7.82 7.63,10.73 2.23,2.61 6.58,7.58 8.03,10.63 -1.87,4.28 -7.29,12.06 -9.91,16.23l-65.73 105.19c-1.55,2.56 -3.68,5.41 -5.48,8.65z"/>
  <polygon class="fil1" points="297.22,388.89 319.2,375.77 334.37,366.92 433.49,375.04 454.72,388.69 498.15,404.46 513.22,473.1 408.33,587.65 393.58,588.95 377.22,589.27 358.14,588.82 340.57,586.81 245.88,506.63 235.24,411.99 274.96,396.83 "/>
  <path class="fil0" d="M386.18 419.63l-18.97 0.06c-1.58,3.32 -6.12,8.86 -8.46,12.21 -6.76,9.67 -7.98,3.81 4.25,27.71 2.08,4.07 7.06,10.1 5.72,15.49l-22.33 64.42c-2.01,-2.82 -21.47,-63.33 -24.38,-72.24 -6.37,-19.53 -4.41,-20.31 -4.41,-43.57 0,-17.18 0.25,-31.16 1.58,-47.93l-21.97 13.12c-3.18,2.45 -36.88,30.11 -38.41,33.32 6.83,4.86 12.53,12.31 19.33,17.17 -2.71,5.01 -11.1,11.45 -14.5,15.19 1.19,4.09 16.22,27.25 19.63,33.13 18.95,32.7 40.75,66.6 60.62,99.45 8.87,2.84 57.87,2.85 66.67,-0.01 1.8,-3.24 3.94,-6.09 5.48,-8.65l65.73 -105.19c2.62,-4.17 8.05,-11.95 9.91,-16.23 -1.45,-3.05 -5.8,-8.02 -8.03,-10.63 -2.49,-2.91 -6.31,-7.24 -7.63,-10.73 3.08,-1.44 13.46,-10.58 15.5,-12.82 -1.95,-3.31 -13.89,-13.03 -17.99,-17.14l-9.16 -8.36c-2.98,-2.76 -7.28,-5.72 -9.65,-8.69l-21.24 -13.63c-0.15,5.1 4.02,11.68 4.06,19.45l-0.07 50.08c-0.36,4.58 -15.2,50.45 -17.24,57.18l-12.18 37.7c-3.93,-8.33 -7.84,-22.17 -10.95,-31.39l-11.17 -32.31c-1.34,-5.3 2.84,-10.48 5.03,-14.96 2.52,-5.13 4.32,-9.51 6.99,-14.72 4.91,-9.63 -0.08,-8.2 -11.78,-26.47z"/>
  <path class="fil1" d="M308.02 203.08c-2.32,4.06 -6.19,43.54 -7.2,49.72 -0.96,5.94 -2.38,1.28 -2.29,10.79 0.1,10.48 -1.37,21.62 2.58,30.35 1.63,3.62 3.18,6.94 5.65,10.16 2.76,3.6 3.34,4.17 7.2,5.29 1.69,0.49 -0.06,-0.08 1.37,0.37l1.26 0.44c2.33,0.82 1.11,13.22 3.15,19.26 2.84,8.43 5.99,7.12 5.92,18.31l6.6 39.19c0.06,0.2 -6.91,1.07 -6.86,1.22 0.05,0.15 0.15,0.43 0.27,0.62l-0.01 -48.16 0.16 0.14 0.01 0.01 0.17 0.16 0.01 0.01 0.18 0.18 0.01 0.01 0.19 0.18 0.01 0.01 0.2 0.2 0.01 0.01 0.2 0.22 0.01 0.01 0.22 0.23 0.01 0 0.23 0.25 0.01 0.01 0.23 0.25 0.01 0.01 0.24 0.27 0.01 0.01 0.25 0.28 0.01 0.01 0.25 0.29 0.01 0.01 0.26 0.3 0.01 0.01 0.27 0.32 0.01 0 0.28 0.32 0.01 0.01 0.27 0.33 0.01 0.01 0.29 0.35 0.01 0.01 0.3 0.35 0.01 0 0.3 0.37 0.01 0 0.3 0.37 0.01 0 0.32 0.38 0.01 0.01 0.32 0.38 0.01 0.01 0.32 0.39 0.01 0.01 0.32 0.4 0.01 0 0.33 0.41 0.01 0 0.34 0.41 0.01 0.01 0.35 0.42 0.01 0 0.35 0.42 0.01 0 0.35 0.43 0.01 0 0.35 0.44 0.01 0 0.36 0.43 0.01 0.01 0.37 0.44 0.01 0 0.37 0.44 0.01 0 0.37 0.44 0.01 0 0.37 0.44 0.01 0 0.37 0.45 0.01 0 1.94 2.25 0.01 0 0.39 0.45 0.01 0 0.79 0.89 0.01 0 0.39 0.44 0.01 0 0.79 0.88 0.01 0 0.8 0.87 0.01 0c2.01,2.15 4.02,4.13 5.94,5.75l1.18 0.99 0 0.01 0.39 0.33 0.01 0 1.18 1.01 0.01 0 2.01 1.68 0.01 0 0.8 0.67 0.01 0 1.23 0.99 0 0.01 0.83 0.65 0.42 0.32 0.01 0 0.42 0.32 0.01 0 0.42 0.32 0.01 0 0.42 0.32 0.01 0 0.42 0.32 0.42 0.31 0.01 0 0.43 0.3 0 0.01 0.87 0.6 0.01 0 0.43 0.3 0.01 0 0.44 0.29 0 0.01 0.89 0.56 0 0.01 0.44 0.27 0.01 0 0.89 0.54 0.01 0 0.45 0.26 0 0.01 0.46 0.25 0 0.01 0.46 0.25 0.01 0 0.92 0.48 0.01 0 0.46 0.23 0.01 0 0.94 0.44 0.48 0.21 0.48 0.2 0.01 0 0.48 0.2 0.01 0 0.49 0.18 0.49 0.18 0.01 0 0.49 0.17 0.49 0.16 0.01 0 0.5 0.15 0.51 0.14 0.51 0.13 0.01 0 0.51 0.12 0 0.01 0.51 0.11 0.01 0 0.51 0.11 0.01 0 0.51 0.09 0.01 0 0.52 0.08 0.01 0 0.53 0.07 0.01 0.01 0.53 0.06 0.01 0.01 0.54 0.05 0.54 0.04 0.01 0.01 0.54 0.02 0.01 0.01 0.54 0.01 0.01 0.01 0.55 0c0.56,-0.01 1.12,-0.02 1.68,-0.06l0 -0.01 1.11 -0.11 0 -0.01 0.55 -0.06 0 -0.01 0.54 -0.08 0.01 0 0.54 -0.1 0.01 0 1.08 -0.23 0.54 -0.13 0 -0.01 0.54 -0.14 0.54 -0.15 0 -0.01 0.53 -0.16 0.01 0 0.52 -0.17 0.01 0 0.52 -0.18 0.53 -0.19 0.52 -0.2 0.51 -0.2 0.51 -0.22 0.51 -0.23 0.51 -0.23 0.51 -0.24 0.5 -0.25 0.5 -0.25 0.5 -0.25 0 -0.01 0.49 -0.26 0.49 -0.27 0 -0.01 0.49 -0.27 0.48 -0.27 0 -0.01 0.48 -0.28 0.47 -0.29 0 -0.01 0.47 -0.29 0.46 -0.3 0 -0.01 0.46 -0.3 0 -0.01 0.46 -0.3 0 -0.01 0.45 -0.3 0 -0.01 0.45 -0.3 0 -0.01 0.44 -0.31 0.44 -0.31 0 -0.01 0.44 -0.31 0 -0.01 0.43 -0.31 0 -0.01 0.42 -0.32 0.42 -0.32 0 -0.01 0.42 -0.32 0.41 -0.32 0 -0.01 0.41 -0.32 0.39 -0.32 0.01 -0.01 0.39 -0.31 0.01 -0.01 0.39 -0.31 0 -0.01 0.38 -0.31 0 -0.01 0.38 -0.31 0 -0.01 0.37 -0.3 0 -0.01 0.37 -0.3 0 -0.01 0.36 -0.3 0.01 -0.01 0.35 -0.3 0 -0.01 0.35 -0.3 0.01 -0.01 0.34 -0.3 0.01 0 0.33 -0.29 0.01 -0.01 0.32 -0.28 0.01 -0.01 0.32 -0.28 0.01 -0.01 0.32 -0.27 0.01 -0.01 0.3 -0.27 0.01 -0.01 0.17 -0.15 0.01 -0.01 0.17 -0.15 0.01 -0.01 0.17 -0.15 0.01 -0.01 0.17 -0.15 0.01 -0.01 0.17 -0.15 0.01 -0.01 0.17 -0.15 0.01 -0.01 0.17 -0.15 0.01 -0.01 0.18 -0.15 0 -0.01 0.18 -0.15 0 -0.01 0.18 -0.15 0 -0.01 0.18 -0.15 0 -0.01 0.18 -0.15 0 -0.01 0.18 -0.15 0 -0.01 0.18 -0.15 0 -0.01 0.18 -0.15 0 -0.01 0.18 -0.15 0 -0.01 0.18 -0.16 0.18 -0.16 0 -0.01 0.18 -0.16 0.18 -0.16 0 -0.01 0.18 -0.16 0.18 -0.17 0.18 -0.17 0.18 -0.16 0 -0.01 0.18 -0.17 0.17 -0.17 0.01 0 0.17 -0.17 0.01 0 0.17 -0.17 0.18 -0.18 0.18 -0.17 0.18 -0.18 0.18 -0.17 0.18 -0.18 0.18 -0.18 0.17 -0.18 0.01 0 0.17 -0.18 0.18 -0.18 0 -0.01 0.18 -0.18 0.18 -0.18 0 -0.01 0.18 -0.18 0.17 -0.18 0 -0.01 0.18 -0.18 0 -0.01 0.18 -0.18 0 -0.01 0.18 -0.18 0 -0.01 0.17 -0.18 0 -0.01 0.18 -0.18 0 -0.01 0.18 -0.18 0.18 -0.18 0 -0.01 0.17 -0.18 0 -0.01 0.18 -0.18 0.18 -0.18 0 -0.01 0.17 -0.18 0 -0.01 0.18 -0.19 0.18 -0.19 0 -0.01 0.17 -0.18 0 -0.01 0.18 -0.19 0 -0.01 0.17 -0.18 0 -0.01 0.18 -0.19 0 -0.01 0.17 -0.19 0 -0.01 0.18 -0.19 0 -0.01 0.18 -0.19 0 -0.01 0.17 -0.2 0 -0.01 0.18 -0.19 0 -0.01 0.17 -0.2 0 -0.01 0.16 -0.18 0 -0.01 0.16 -0.18 0 -0.01 0.16 -0.19 0 -0.01 0.16 -0.18 0 -0.01 0.16 -0.19 0 -0.01 0.16 -0.19 0 -0.01 0.16 -0.19 0 -0.01 0.16 -0.19 0 -0.01 0.16 -0.2 0.01 0 0.32 -0.4 0.16 -0.2 0.16 -0.2 0 -0.01 0.33 -0.4 0 -0.01 0.16 -0.2 0.16 -0.2 0.17 -0.2 0 -0.01 0.16 -0.2 0 -0.01 0.16 -0.2 0.01 0 0.16 -0.2 0.16 -0.2 0.17 -0.2 0.16 -0.2 0.17 -0.2 0.16 -0.2 0.17 -0.2 0.16 -0.2 0.17 -0.2 0.16 -0.2 0.17 -0.2 0.16 -0.2 0.17 -0.2 0.16 -0.2 0.01 0 0.16 -0.2 0 -0.01 0.17 -0.2 0.16 -0.2 0.01 0 0.16 -0.19 0 -0.01 0.17 -0.19 0 -0.01 0.16 -0.19 0.01 0 0.16 -0.19 0.01 0 0.16 -0.19 0 -0.01 0.17 -0.18 0.16 -0.19 0.01 0 0.33 -0.37 0.17 -0.18 0.33 -0.36 0.01 0 0.5 -0.53 0.01 0 0.33 -0.34 0 -0.01 0.16 -0.16 0.01 0 0.16 -0.17 0.01 0 0.16 -0.16 0.01 0 0.33 -0.32 0.01 0 0.16 -0.15 0.01 0 0.33 -0.3 0.01 0 0.16 -0.15 0.01 0 0.16 -0.14 0.01 0 0.1 -0.09 0.01 0 0.13 -0.11 0 -0.01 0.14 -0.11 0.01 0 0.14 -0.1c1.67,-4.11 4.4,-6.86 6.22,-12.54 1.93,-6.03 1.14,-11.62 1.75,-18.44 7.55,-2.31 7.75,-0.71 12.19,-7.73 8.52,-13.46 6.99,-17.12 7,-32.94 0,-14.74 1.31,-13.61 -6.04,-14.05 -3.8,5.44 -4.68,3.49 -8.04,14.1 -1.19,3.75 -0.08,3.3 -3.36,4.01 -3.46,-5.04 1.81,-58.88 -1.6,-69.16 -3.25,-9.83 -14.58,-8.51 -25.33,-6.94 -41.48,6.07 -76.01,-2.41 -82.87,-1.11 -15.81,2.97 -11.4,18.56 -11.4,42.29 0,5.68 0.78,31.51 -0.46,34.75 -5.87,-0.42 -2.68,-8.4 -9.53,-15.23 -2.16,-2.16 -5.11,-2.82 -5.46,-3.68l6.62 -51.35zm17.64 137.57l-0.01 -0.01 0.01 0.01z"/>
  <path class="fil1" d="M182.96 481.24c-0.2,7.41 6.58,14.24 12.19,21.26 14.15,17.66 32.47,34.64 52.16,47.86 22.71,15.24 62.31,33.79 96.57,36.78 -19.86,-32.85 -41.66,-66.75 -60.62,-99.45 -3.41,-5.89 -18.44,-29.04 -19.63,-33.13 3.4,-3.74 11.79,-10.17 14.5,-15.19 -6.8,-4.86 -12.5,-12.31 -19.33,-17.17 1.53,-3.21 35.23,-30.87 38.41,-33.32 -6.6,1.47 -82.14,30.97 -94.29,35.49 -10.23,3.82 -9.96,1.84 -13.06,12.82 -3.39,12.01 -6.52,30.99 -6.92,44.04z"/>
  <path class="fil0" d="M301.5 202.27l-0.1 52.17c0.35,0.86 3.3,1.52 5.46,3.68 6.86,6.83 3.66,14.81 9.53,15.23 1.24,-3.25 0.46,-29.07 0.46,-34.75 0,-23.73 -4.41,-39.32 11.4,-42.29 6.86,-1.3 41.39,7.18 82.87,1.11 10.75,-1.58 22.08,-2.89 25.33,6.94 3.41,10.27 -1.87,64.12 1.6,69.16 3.27,-0.72 2.17,-0.26 3.36,-4.01 3.37,-10.61 4.25,-8.66 8.04,-14.1 0.63,-12.34 0.11,-26 0.11,-38.49 0,-14.3 1.62,-21.86 -4.32,-33.86 -22.35,-45.15 -103.85,-44.77 -131.38,-7.86 -4.96,6.65 -11.1,17.19 -12.35,27.08z"/>
  <path class="fil1" d="M325.68 388.82c0.7,3.86 16.26,13.17 19.98,15.62l21.56 15.25 18.97 -0.06c7.02,-3.51 27.28,-18.26 36.37,-23.92 7.98,-4.97 5.77,-8.01 5.77,-24.54 0,-10.02 -0.04,-20.05 0.01,-30.07 -0.19,0.12 -0.41,0.32 -0.52,0.42 -3.6,3.04 -7.17,8.08 -10.62,12.12 -3.68,4.32 -7.43,7.94 -11.2,11.27 -6.6,5.82 -17.6,15.33 -29.55,15.07 -11.82,-0.25 -20.76,-8.55 -29.12,-15.56 -8.19,-6.86 -18.17,-20.72 -21.67,-23.76l0.02 48.17z"/>
 </g>
</svg>
