<?xml version="1.0" encoding="UTF-8"?>
<!DOCTYPE svg PUBLIC "-//W3C//DTD SVG 1.1//EN" "http://www.w3.org/Graphics/SVG/1.1/DTD/svg11.dtd">
<!-- Creator: CorelDRAW 2018 (64-Bit) -->
<svg xmlns="http://www.w3.org/2000/svg" xml:space="preserve" width="0.426669in" height="0.426665in" version="1.1" style="shape-rendering:geometricPrecision; text-rendering:geometricPrecision; image-rendering:optimizeQuality; fill-rule:evenodd; clip-rule:evenodd"
viewBox="0 0 46.19 46.18"
 xmlns:xlink="http://www.w3.org/1999/xlink">
 <defs>
  <style type="text/css">
   <![CDATA[
    .fil1 {fill:#FEFEFE}
    .fil0 {fill:#FF0078}
   ]]>
  </style>
 </defs>
 <g id="Layer_x0020_1">
  <metadata id="CorelCorpID_0Corel-Layer"/>
  <g id="_1665794548000">
   <rect class="fil0" x="0" y="0" width="46.18" height="46.18"/>
   <path class="fil1" d="M35.51 37.19c0.33,-3.14 -0.1,-6.68 -1.59,-9.36 -0.98,-1.75 -3.56,-4.53 -6.73,-4.07l-2.45 7.3 -0.82 -0.03c0.01,-1.29 -0.06,-2.66 -0.09,-3.96 -0.09,-3.58 0.08,-1.74 0.66,-3.35 -1.89,0.58 -1.46,0.33 -3.01,0.01 0.16,0.46 0.63,0.9 0.72,1.38l-0.12 5.95 -0.83 -0.01 -2.46 -7.32 -1.18 0.03c-4.12,0.64 -6.42,4.47 -7.01,8.39 -0.12,0.78 -0.3,4.37 -0.1,5l25.02 0.04z"/>
   <path class="fil1" d="M21.03 22.67c0.93,0.32 1.46,0.64 2.63,0.36 2.33,-0.55 3.32,-3 4.1,-5.16l0.42 -0.08c0.4,-0.17 0.29,-0.66 0.46,-1.29 0.41,-1.45 -0.28,-1.27 -0.38,-1.61 0.2,-4.46 -1.86,-6.6 -6.37,-6.3 -1.62,0.34 -2.62,0.73 -3.45,1.85 -0.82,1.1 -1.09,2.77 -1.01,4.45 -0.2,0.28 -0.37,0.24 -0.48,0.62 -0.1,0.38 0,0.67 0.09,0.99 0.2,0.7 0.05,1.5 0.86,1.3 0.36,1.33 1.09,3 2.03,3.94l1.08 0.94z"/>
   <polygon class="fil0" points="29.64,25.98 30.1,27.55 31.66,27.7 30.49,28.68 30.85,30.42 29.67,29.45 28.34,30.38 28.78,28.8 27.59,27.64 29.04,27.63 "/>
  </g>
 </g>
</svg>
