<?xml version="1.0" encoding="UTF-8"?>
<!DOCTYPE svg PUBLIC "-//W3C//DTD SVG 1.1//EN" "http://www.w3.org/Graphics/SVG/1.1/DTD/svg11.dtd">
<!-- Creator: CorelDRAW 2018 (64-Bit) -->
<svg xmlns="http://www.w3.org/2000/svg" xml:space="preserve" width="0.426669in" height="0.426665in" version="1.1" style="shape-rendering:geometricPrecision; text-rendering:geometricPrecision; image-rendering:optimizeQuality; fill-rule:evenodd; clip-rule:evenodd"
viewBox="0 0 36.32 36.32"
 xmlns:xlink="http://www.w3.org/1999/xlink">
 <defs>
  <style type="text/css">
   <![CDATA[
    .fil1 {fill:#FEFEFE}
    .fil0 {fill:#772BED}
   ]]>
  </style>
 </defs>
 <g id="Layer_x0020_1">
  <metadata id="CorelCorpID_0Corel-Layer"/>
  <g id="_1702146425664">
   <rect class="fil0" x="0" y="0" width="36.32" height="36.32"/>
   <path class="fil1" d="M27.92 29.25c0.26,-2.47 -0.08,-5.25 -1.25,-7.36 -0.77,-1.38 -2.8,-3.56 -5.29,-3.2l-1.93 5.74 -0.65 -0.03c0.01,-1.02 -0.04,-2.09 -0.07,-3.11 -0.07,-2.82 0.07,-1.37 0.52,-2.64 -1.49,0.46 -1.15,0.26 -2.37,0.01 0.13,0.36 0.5,0.71 0.56,1.09l-0.1 4.68 -0.65 -0 -1.94 -5.75 -0.93 0.02c-3.24,0.51 -5.05,3.51 -5.51,6.59 -0.09,0.62 -0.23,3.44 -0.08,3.93l19.68 0.03z"/>
   <path class="fil1" d="M16.54 17.83c0.73,0.25 1.15,0.5 2.07,0.28 1.83,-0.44 2.61,-2.36 3.22,-4.05l0.33 -0.06c0.32,-0.13 0.22,-0.52 0.37,-1.02 0.32,-1.14 -0.22,-1 -0.3,-1.27 0.16,-3.51 -1.46,-5.19 -5.01,-4.95 -1.28,0.27 -2.06,0.57 -2.72,1.45 -0.64,0.86 -0.86,2.18 -0.79,3.5 -0.16,0.22 -0.29,0.19 -0.37,0.49 -0.08,0.3 0,0.53 0.07,0.77 0.16,0.55 0.04,1.18 0.68,1.02 0.28,1.05 0.86,2.36 1.6,3.1l0.85 0.74z"/>
  </g>
 </g>
</svg>
