<?xml version="1.0" encoding="UTF-8"?>
<!DOCTYPE svg PUBLIC "-//W3C//DTD SVG 1.1//EN" "http://www.w3.org/Graphics/SVG/1.1/DTD/svg11.dtd">
<!-- Creator: CorelDRAW 2018 (64-Bit) -->
<svg xmlns="http://www.w3.org/2000/svg" xml:space="preserve" width="0.426669in" height="0.426665in" version="1.1" style="shape-rendering:geometricPrecision; text-rendering:geometricPrecision; image-rendering:optimizeQuality; fill-rule:evenodd; clip-rule:evenodd"
viewBox="0 0 24.92 24.92"
 xmlns:xlink="http://www.w3.org/1999/xlink">
 <defs>
  <style type="text/css">
   <![CDATA[
    .fil1 {fill:#FEFEFE}
    .fil0 {fill:#A9ABAE}
   ]]>
  </style>
 </defs>
 <g id="Layer_x0020_1">
  <metadata id="CorelCorpID_0Corel-Layer"/>
  <rect class="fil0" x="0" y="0" width="24.92" height="24.92"/>
  <circle class="fil1" cx="12.58" cy="7.93" r="3.5"/>
  <path class="fil1" d="M9.66 12.27c-0.13,-0.08 -0.29,-0.11 -0.45,-0.06 -0.6,0.19 -1.34,0.81 -1.68,1.08 -1.13,1.03 -1.76,2.46 -1.88,3.98 -0.1,1.29 0.71,1.75 1.77,2.23 2.49,1.13 7.82,1.13 10.31,0 1.07,-0.48 1.87,-0.94 1.77,-2.23 -0.12,-1.52 -0.74,-2.95 -1.88,-3.98 -0.34,-0.27 -1.08,-0.89 -1.68,-1.08 -0.16,-0.05 -0.32,-0.02 -0.45,0.06 -2.07,1.25 -3.78,1.25 -5.86,0z"/>
 </g>
</svg>
