<?xml version="1.0" encoding="UTF-8"?>
<!DOCTYPE svg PUBLIC "-//W3C//DTD SVG 1.1//EN" "http://www.w3.org/Graphics/SVG/1.1/DTD/svg11.dtd">
<!-- Creator: CorelDRAW 2018 (64-Bit) -->
<svg xmlns="http://www.w3.org/2000/svg" xml:space="preserve" width="0.426669in" height="0.426665in" version="1.1" style="shape-rendering:geometricPrecision; text-rendering:geometricPrecision; image-rendering:optimizeQuality; fill-rule:evenodd; clip-rule:evenodd"
viewBox="0 0 63.89 63.88"
 xmlns:xlink="http://www.w3.org/1999/xlink">
 <defs>
  <style type="text/css">
   <![CDATA[
    .fil1 {fill:#FEFEFE}
    .fil0 {fill:#FFB111}
   ]]>
  </style>
 </defs>
 <g id="Layer_x0020_1">
  <metadata id="CorelCorpID_0Corel-Layer"/>
  <g id="_1702149769136">
   <rect class="fil0" x="0" y="0" width="63.88" height="63.88"/>
   <path class="fil1" d="M39.83 25.78c-0.21,0.04 -0.14,0.07 -0.28,0.11 -0.52,1.03 -0.1,1.16 -0.54,2.29 -0.27,0.68 -0.67,1.17 -1.32,1.45 -1.47,0.63 -3.81,0.26 -4.19,-0.83 -0.38,-0.25 -0.56,-1.42 -0.85,-1.89 -0.18,-0.29 -0.41,-0.49 -0.85,-0.52 -0.68,-0.04 -0.7,0.31 -0.9,0.41 -0.64,2.09 -1.35,3.4 -4.08,3.15 -1.12,-0.1 -1.84,-0.63 -2.22,-1.4 -0.37,-0.75 -0.23,-2.45 -0.91,-2.67 -0.26,0.08 -0.39,0.42 -0.86,0.14l-0.22 -0.16c-0.08,0.4 -0.68,0.36 -0.82,1.58 -0.08,0.71 0.09,1.44 0.34,1.99 0.25,0.56 0.61,1.09 0.96,1.42 0.16,0.16 0.45,0.38 0.68,0.51 0.52,0.28 0.32,0.16 0.46,0.79 0.47,2.09 1.48,3.19 3.06,4.14 0.53,0.32 1.05,0.51 1.6,0.83l-0.01 0.82 0.09 -0.8c3.14,1.55 4.95,0.13 5.74,0.02l0.08 0.02c0.14,-0.19 0.49,-0.28 0.83,-0.46 0.31,-0.16 0.56,-0.31 0.83,-0.47 3.22,-1.98 2.75,-4.26 3.15,-4.69 0.1,-0.1 1.5,-0.46 2.25,-2.39 0.51,-1.32 0.34,-2.93 -0.89,-3.27l0.02 -0.22c-0.01,0.01 -0.02,0.03 -0.02,0.04l-0.06 0.18c-0.03,0.12 0,0.1 -0.07,0.21 -0.08,0.12 -0.22,0.14 -0.36,0.13 -0.38,-0.03 -0.44,-0.25 -0.64,-0.44z"/>
   <path class="fil0" d="M22.61 25.86l0.22 0.16c0.47,0.28 0.6,-0.06 0.86,-0.14 -0.18,-0.16 -0.19,-0.22 -0.24,-0.55 -0.07,-0.44 0.27,-0.47 0.51,-0.62 -0.08,-0.11 -0.02,0.03 -0.06,-0.13l-0.01 -0.33c0.1,-1.89 0.66,-3.67 1.75,-5.18 0.32,-0.44 0.89,-1.13 1.44,-1.4 0.2,-0.1 0.5,0.02 0.74,0.05 0.56,0.07 1.29,0.02 1.87,0.04 2.3,0.05 6.03,0.42 7.74,1.46 1.87,1.14 1.49,2.93 2.03,5.39l-0.12 0.02c0.25,0.15 0.55,0.11 0.67,0.39 0.15,0.35 -0.05,0.6 -0.19,0.75 0.2,0.19 0.26,0.41 0.64,0.44 0.14,0.01 0.27,-0.01 0.36,-0.13 0.08,-0.11 0.04,-0.09 0.07,-0.21l0.06 -0.18c0,-0.01 0.01,-0.03 0.02,-0.04 -0,-0.52 0.17,-1.42 0.21,-2.03 0.12,-2.02 0.38,-4.29 -0.23,-6.23 -0.68,-2.16 -2.55,-3.75 -4.47,-4.66 -2.38,-1.12 -4.72,-1.48 -7.75,-1.1 -1.27,0.16 -2.56,0.51 -3.36,1.17 -0.66,0.54 -1.16,1.33 -1.13,2.26 0.02,0.45 0.17,0.63 0.22,0.97 -0.18,0.14 -0.35,0.23 -0.51,0.35 -2.38,1.67 -2.95,4.22 -2.49,7.07 0.11,0.69 0.48,2.13 1.13,2.41z"/>
   <path class="fil1" d="M23.96 24.7c2.2,-0.34 3.6,-0.34 5.84,0.11 1.39,0.28 2.08,0.57 3.66,0.07 2,-0.63 3.94,-0.39 5.89,-0.26l0.12 -0.02c-0.54,-2.47 -0.16,-4.25 -2.03,-5.39 -1.71,-1.04 -5.45,-1.41 -7.74,-1.46 -0.58,-0.01 -1.31,0.03 -1.87,-0.04 -0.24,-0.03 -0.54,-0.15 -0.74,-0.05 -0.54,0.27 -1.12,0.95 -1.44,1.4 -1.1,1.5 -1.65,3.29 -1.75,5.18l0.01 0.33c0.04,0.16 -0.03,0.02 0.06,0.13z"/>
   <path class="fil0" d="M34.97 40.01c-0.34,0.25 -1.13,0.59 -1.53,0.79 -0.29,0.15 -1.35,0.76 -1.59,0.73 -0.18,-0.02 -2.95,-1.45 -3.12,-1.6 -0.37,-0.09 -0.72,-0.48 -1.13,-0.38 -0.22,0.32 -0.13,1.55 -0.1,2.04 -0.04,0.55 -0.14,2.18 0.11,2.52 0.37,0.09 0.81,-0.24 1.1,-0.4 0.34,-0.18 0.67,-0.34 1.05,-0.53 0.32,-0.17 1.92,-1.04 2.14,-1.05 0.18,-0 2.68,1.32 3.2,1.58 1.19,0.61 1.23,0.7 1.23,-0.66 -0,-0.41 -0.01,-0.82 0.01,-1.23 -0.02,-0.57 0.06,-1.81 -0.06,-2.24 -0.45,-0.18 -0.82,0.24 -1.3,0.42z"/>
   <path class="fil1" d="M24.65 25.61c-0.16,0.82 -0.04,2.31 0.35,2.94 0.4,0.64 1.2,1.04 2.26,1.08 1.27,0.06 1.86,-0.29 2.38,-0.96 0.4,-0.52 0.93,-1.59 0.86,-2.49 -0.24,-0.55 -0.45,-0.77 -0.99,-1 -0.85,-0.36 -2.72,-0.39 -3.66,-0.3 -0.87,0.08 -0.96,0.44 -1.2,0.73z"/>
   <path class="fil1" d="M33.75 28.54c0.01,0.01 0.03,0.01 0.04,0.03l0.61 0.6c0.23,0.18 0.53,0.34 0.91,0.4 0.73,0.12 1.6,0.04 2.22,-0.22 0.58,-0.24 1.05,-0.67 1.23,-1.32 0.16,-0.58 0.26,-1.76 0.14,-2.37 -0.19,-0.35 -0.23,-0.49 -0.66,-0.66 -0.71,-0.29 -3.15,-0.15 -3.87,0.05 -1.73,0.49 -1.5,1.77 -0.84,3.01 0.08,0.15 0.21,0.32 0.23,0.47z"/>
   <path class="fil1" d="M28.92 38.04c-0.11,0.2 -0.05,0.67 -0.07,0.94 -0.01,0.21 0.05,0.88 -0.11,0.96 0.17,0.15 2.94,1.57 3.12,1.6 0.24,0.03 1.3,-0.59 1.59,-0.73 0.4,-0.21 1.19,-0.55 1.53,-0.79 -0.19,-0.01 -0.15,-0.42 -0.16,-0.6 -0.01,-0.25 -0.02,-0.52 -0.02,-0.77 0.01,-0.35 -0.05,-1.22 0,-1.47l-0.08 -0.02 -0.02 1.32c-1.08,0.61 -4.41,0.56 -5.77,-0.01l-0 -0.41z"/>
   <path class="fil0" d="M23.96 24.7c-0.24,0.15 -0.58,0.18 -0.51,0.62 0.07,0.03 -0.02,0.05 0.18,0.03l0.05 0.15c0.05,0.12 0.02,0.14 0.18,0.17 0,0 0.16,-0 0.17,-0l-0 0.27 0.24 0.04c0.12,-0.15 0.06,-0.17 0.11,-0.28l0.28 -0.09c0.23,-0.29 0.33,-0.65 1.2,-0.73 0.94,-0.09 2.81,-0.06 3.66,0.3 0.54,0.23 0.76,0.45 0.99,1l0.11 0.28c0.01,0.08 -0.01,0.22 -0.02,0.28 0.08,0.06 0,0.03 0.13,0.06 0.08,0.02 0.1,0.01 0.18,-0 0.2,-0.1 0.22,-0.45 0.9,-0.41 0.44,0.03 0.68,0.23 0.85,0.52 0.29,0.47 0.47,1.64 0.85,1.89l0.23 0c0,-0.02 0.01,-0.05 0.01,-0.05 0,0.01 0.01,-0.03 0.01,-0.04 0,-0.02 0.01,-0.17 0.01,-0.17 -0.02,-0.16 -0.15,-0.32 -0.23,-0.47 -0.66,-1.25 -0.89,-2.52 0.84,-3.01 0.73,-0.21 3.16,-0.34 3.87,-0.05 0.44,0.18 0.47,0.32 0.66,0.66l0.26 0.02c0.04,0.11 -0.07,0.04 0.06,0.27l0.34 -0.06c0.14,-0.04 0.07,-0.07 0.28,-0.11 0.13,-0.15 0.33,-0.4 0.19,-0.75 -0.12,-0.28 -0.42,-0.24 -0.67,-0.39 -1.95,-0.14 -3.89,-0.37 -5.89,0.26 -1.57,0.5 -2.26,0.2 -3.66,-0.07 -2.24,-0.45 -3.64,-0.46 -5.84,-0.11z"/>
   <path class="fil1" d="M28.89 37.93l0.03 0.11 0 0.41c1.36,0.57 4.69,0.63 5.77,0.01l0.02 -1.32c-0.79,0.11 -2.6,1.53 -5.74,-0.02l-0.09 0.8z"/>
   <path class="fil0" d="M23.69 25.87c0.68,0.22 0.54,1.92 0.91,2.67 0.38,0.77 1.1,1.3 2.22,1.4 2.72,0.25 3.43,-1.06 4.08,-3.15 -0.08,0.01 -0.1,0.02 -0.18,0 -0.13,-0.03 -0.05,-0 -0.13,-0.06 0.01,-0.06 0.03,-0.2 0.02,-0.28l-0.11 -0.28c0.07,0.91 -0.45,1.98 -0.86,2.49 -0.53,0.67 -1.12,1.02 -2.38,0.96 -1.05,-0.05 -1.86,-0.45 -2.26,-1.08 -0.39,-0.62 -0.51,-2.12 -0.35,-2.94l-0.28 0.09c-0.05,0.11 0,0.14 -0.11,0.28l-0.24 -0.04 0 -0.27c-0,0 -0.16,0 -0.17,0 -0.15,-0.03 -0.12,-0.05 -0.18,-0.17l-0.05 -0.15c-0.19,0.03 -0.11,0 -0.18,-0.03 0.04,0.33 0.06,0.39 0.24,0.55z"/>
   <path class="fil0" d="M33.75 28.54c0,0 -0.01,0.15 -0.01,0.17 -0,0.01 -0.01,0.05 -0.01,0.04 -0,-0.01 -0.01,0.03 -0.01,0.05l-0.23 -0c0.38,1.09 2.72,1.46 4.19,0.83 0.65,-0.28 1.05,-0.77 1.32,-1.45 0.45,-1.12 0.03,-1.26 0.54,-2.29l-0.34 0.06c-0.13,-0.23 -0.02,-0.16 -0.06,-0.27l-0.26 -0.02c0.12,0.61 0.02,1.79 -0.14,2.37 -0.18,0.65 -0.64,1.08 -1.23,1.32 -0.63,0.26 -1.49,0.35 -2.22,0.22 -0.37,-0.06 -0.68,-0.22 -0.91,-0.4l-0.61 -0.6c-0.01,-0.02 -0.02,-0.02 -0.04,-0.03z"/>
   <polygon class="fil1" points="34.97,40.01 28.74,39.94 27.51,41.6 25.2,44.4 38.7,46.35 36.34,41.83 "/>
   <path class="fil1" d="M17.39 48.64c0.45,0.26 0.94,0.63 1.42,0.94 1.47,0.95 3.13,1.71 4.78,2.36 6.08,2.42 13.85,2.06 19.77,-0.72 0.57,-0.27 1.04,-0.51 1.59,-0.79 0.33,-0.17 1.28,-0.78 1.48,-0.82 -0.07,-2.21 -1.34,-4.58 -3.23,-5.72 -1.72,-1.04 -5.08,-1.43 -6.86,-2.06 -0.01,0.41 -0.01,0.82 -0.01,1.23 0,1.36 -0.04,1.27 -1.23,0.66 -0.52,-0.26 -3.02,-1.58 -3.2,-1.58 -0.22,0 -1.82,0.88 -2.14,1.05 -0.38,0.2 -0.71,0.36 -1.05,0.53 -0.29,0.15 -0.73,0.49 -1.1,0.4 -0.24,-0.34 -0.15,-1.97 -0.11,-2.52l-6.47 2.1c-1.88,0.74 -3.46,3.08 -3.64,4.95z"/>
  </g>
 </g>
</svg>
