<?xml version="1.0" encoding="UTF-8"?>
<!DOCTYPE svg PUBLIC "-//W3C//DTD SVG 1.1//EN" "http://www.w3.org/Graphics/SVG/1.1/DTD/svg11.dtd">
<!-- Creator: CorelDRAW 2018 (64-Bit) -->
<svg xmlns="http://www.w3.org/2000/svg" xml:space="preserve" width="0.426669in" height="0.426665in" version="1.1" style="shape-rendering:geometricPrecision; text-rendering:geometricPrecision; image-rendering:optimizeQuality; fill-rule:evenodd; clip-rule:evenodd"
viewBox="0 0 98.09 98.09"
 xmlns:xlink="http://www.w3.org/1999/xlink">
 <defs>
  <style type="text/css">
   <![CDATA[
    .fil1 {fill:#FEFEFE}
    .fil0 {fill:#A9ABAE}
   ]]>
  </style>
 </defs>
 <g id="Layer_x0020_1">
  <metadata id="CorelCorpID_0Corel-Layer"/>
  <g id="_1701861614736">
   <rect class="fil0" x="0" y="0" width="98.09" height="98.09"/>
   <path class="fil1" d="M26.7 74.68c0.68,0.4 1.44,0.97 2.18,1.45 2.26,1.45 4.81,2.62 7.34,3.63 9.34,3.72 21.26,3.17 30.36,-1.1 0.87,-0.41 1.6,-0.78 2.44,-1.21 0.5,-0.26 1.96,-1.2 2.28,-1.26 -0.1,-3.39 -2.06,-7.04 -4.96,-8.79 -2.63,-1.59 -7.8,-2.2 -10.54,-3.16 -0.02,0.63 -0.01,1.26 -0.01,1.89 0,2.09 -0.06,1.95 -1.89,1.01 -0.79,-0.4 -4.63,-2.43 -4.91,-2.43 -0.34,0.01 -2.79,1.35 -3.29,1.61 -0.59,0.31 -1.09,0.55 -1.61,0.82 -0.45,0.24 -1.12,0.75 -1.69,0.61 -0.37,-0.53 -0.23,-3.02 -0.16,-3.87l-9.94 3.22c-2.89,1.13 -5.31,4.73 -5.59,7.59z"/>
   <path class="fil1" d="M61.16 39.58c-0.33,0.06 -0.21,0.11 -0.43,0.17 -0.79,1.58 -0.15,1.79 -0.84,3.51 -0.42,1.04 -1.02,1.8 -2.03,2.23 -2.26,0.97 -5.85,0.39 -6.44,-1.27 -0.58,-0.39 -0.87,-2.18 -1.31,-2.91 -0.27,-0.44 -0.63,-0.76 -1.31,-0.8 -1.04,-0.06 -1.07,0.48 -1.38,0.63 -0.99,3.21 -2.08,5.23 -6.26,4.84 -1.72,-0.16 -2.82,-0.97 -3.4,-2.15 -0.57,-1.16 -0.35,-3.76 -1.39,-4.1 -0.4,0.12 -0.6,0.64 -1.32,0.21l-0.34 -0.24c-0.13,0.61 -1.04,0.55 -1.25,2.43 -0.12,1.09 0.14,2.21 0.52,3.05 0.39,0.87 0.94,1.67 1.47,2.19 0.25,0.24 0.68,0.58 1.05,0.78 0.79,0.43 0.49,0.25 0.71,1.21 0.72,3.21 2.28,4.9 4.7,6.35 0.81,0.49 1.61,0.79 2.46,1.27l-0.02 1.26 0.14 -1.23c4.83,2.38 7.6,0.2 8.82,0.03l0.13 0.03c0.21,-0.28 0.75,-0.44 1.28,-0.71 0.47,-0.25 0.86,-0.47 1.27,-0.73 4.95,-3.05 4.22,-6.54 4.83,-7.2 0.15,-0.16 2.31,-0.71 3.45,-3.66 0.78,-2.02 0.52,-4.5 -1.36,-5.02l0.02 -0.34c-0.02,0.02 -0.03,0.05 -0.03,0.07l-0.1 0.28c-0.05,0.18 0.01,0.16 -0.11,0.32 -0.13,0.18 -0.33,0.21 -0.55,0.2 -0.58,-0.04 -0.68,-0.38 -0.98,-0.67z"/>
   <path class="fil0" d="M34.72 39.7l0.34 0.24c0.72,0.43 0.92,-0.09 1.32,-0.21 -0.27,-0.24 -0.3,-0.34 -0.36,-0.85 -0.11,-0.67 0.41,-0.72 0.78,-0.95 -0.13,-0.17 -0.03,0.05 -0.09,-0.2l-0.01 -0.5c0.15,-2.89 1.01,-5.64 2.69,-7.95 0.49,-0.68 1.37,-1.73 2.21,-2.14 0.3,-0.15 0.77,0.03 1.13,0.07 0.85,0.1 1.98,0.04 2.87,0.06 3.53,0.08 9.26,0.65 11.89,2.24 2.88,1.75 2.29,4.49 3.12,8.28l-0.19 0.03c0.38,0.23 0.84,0.16 1.03,0.6 0.23,0.54 -0.08,0.93 -0.29,1.16 0.3,0.3 0.4,0.63 0.98,0.67 0.22,0.02 0.42,-0.02 0.55,-0.2 0.12,-0.16 0.06,-0.13 0.11,-0.32l0.1 -0.28c0.01,-0.02 0.02,-0.05 0.03,-0.07 -0.01,-0.8 0.27,-2.18 0.32,-3.12 0.18,-3.11 0.59,-6.59 -0.35,-9.57 -1.04,-3.31 -3.92,-5.76 -6.87,-7.15 -3.65,-1.73 -7.25,-2.27 -11.9,-1.69 -1.94,0.24 -3.93,0.79 -5.16,1.79 -1.01,0.83 -1.79,2.04 -1.73,3.47 0.03,0.69 0.26,0.96 0.34,1.48 -0.28,0.22 -0.53,0.35 -0.78,0.53 -3.66,2.56 -4.52,6.47 -3.82,10.86 0.17,1.07 0.74,3.27 1.73,3.7z"/>
   <path class="fil1" d="M36.79 37.93c3.37,-0.53 5.52,-0.51 8.96,0.17 2.14,0.43 3.2,0.88 5.61,0.11 3.08,-0.97 6.05,-0.6 9.05,-0.39l0.19 -0.03c-0.83,-3.79 -0.25,-6.53 -3.12,-8.28 -2.63,-1.6 -8.36,-2.17 -11.89,-2.24 -0.89,-0.02 -2.01,0.05 -2.87,-0.06 -0.36,-0.04 -0.83,-0.22 -1.13,-0.07 -0.84,0.41 -1.72,1.46 -2.21,2.14 -1.68,2.31 -2.54,5.06 -2.69,7.95l0.01 0.5c0.06,0.24 -0.04,0.03 0.09,0.2z"/>
   <path class="fil0" d="M53.7 61.43c-0.52,0.38 -1.73,0.9 -2.35,1.22 -0.44,0.23 -2.07,1.17 -2.44,1.12 -0.28,-0.04 -4.53,-2.22 -4.79,-2.45 -0.57,-0.14 -1.1,-0.73 -1.74,-0.58 -0.33,0.49 -0.2,2.38 -0.15,3.13 -0.07,0.85 -0.21,3.34 0.16,3.87 0.57,0.13 1.24,-0.38 1.69,-0.61 0.52,-0.27 1.03,-0.51 1.61,-0.82 0.49,-0.26 2.95,-1.6 3.29,-1.61 0.28,-0.01 4.12,2.02 4.91,2.43 1.83,0.94 1.89,1.08 1.89,-1.01 -0,-0.63 -0.01,-1.26 0.01,-1.89 -0.03,-0.87 0.1,-2.78 -0.09,-3.44 -0.69,-0.27 -1.27,0.36 -2,0.64z"/>
   <path class="fil1" d="M37.84 39.32c-0.24,1.25 -0.06,3.55 0.54,4.51 0.61,0.98 1.84,1.59 3.46,1.66 1.95,0.09 2.85,-0.44 3.66,-1.47 0.62,-0.8 1.42,-2.44 1.32,-3.83 -0.36,-0.84 -0.69,-1.19 -1.53,-1.54 -1.31,-0.55 -4.17,-0.59 -5.62,-0.46 -1.34,0.12 -1.48,0.68 -1.84,1.12z"/>
   <path class="fil1" d="M51.82 43.83c0.02,0.01 0.05,0.01 0.06,0.04l0.93 0.93c0.35,0.28 0.82,0.52 1.39,0.62 1.12,0.19 2.45,0.06 3.41,-0.34 0.9,-0.38 1.61,-1.03 1.88,-2.03 0.25,-0.89 0.4,-2.7 0.22,-3.64 -0.3,-0.53 -0.35,-0.75 -1.02,-1.02 -1.09,-0.45 -4.83,-0.23 -5.95,0.08 -2.65,0.76 -2.3,2.72 -1.29,4.63 0.12,0.24 0.32,0.48 0.36,0.73z"/>
   <path class="fil1" d="M44.4 58.41c-0.17,0.31 -0.08,1.02 -0.1,1.44 -0.02,0.32 0.08,1.35 -0.18,1.47 0.26,0.23 4.51,2.42 4.79,2.45 0.37,0.05 2,-0.9 2.44,-1.12 0.62,-0.32 1.83,-0.84 2.35,-1.22 -0.28,-0.02 -0.23,-0.65 -0.25,-0.92 -0.02,-0.38 -0.03,-0.81 -0.02,-1.19 0.01,-0.54 -0.07,-1.87 0,-2.26l-0.13 -0.03 -0.04 2.03c-1.66,0.94 -6.77,0.85 -8.86,-0.02l-0.01 -0.63z"/>
   <path class="fil0" d="M36.79 37.93c-0.37,0.23 -0.89,0.28 -0.78,0.95 0.1,0.05 -0.03,0.08 0.27,0.04l0.07 0.23c0.08,0.19 0.04,0.22 0.27,0.27 0.01,0 0.25,-0 0.26,-0l-0.01 0.41 0.37 0.06c0.18,-0.23 0.09,-0.27 0.17,-0.44l0.43 -0.14c0.36,-0.45 0.5,-1 1.84,-1.12 1.45,-0.14 4.31,-0.09 5.62,0.46 0.84,0.35 1.16,0.7 1.53,1.54l0.17 0.44c0.02,0.13 -0.01,0.34 -0.03,0.43 0.12,0.09 0,0.05 0.2,0.09 0.12,0.03 0.15,0.01 0.27,-0 0.31,-0.15 0.34,-0.69 1.38,-0.63 0.68,0.04 1.04,0.35 1.31,0.8 0.44,0.72 0.72,2.52 1.31,2.91l0.35 0c0.01,-0.03 0.02,-0.08 0.02,-0.07 0,0.01 0.02,-0.05 0.02,-0.07 0,-0.02 0.01,-0.25 0.01,-0.26 -0.04,-0.24 -0.23,-0.49 -0.36,-0.73 -1.01,-1.91 -1.37,-3.87 1.29,-4.63 1.12,-0.32 4.86,-0.53 5.95,-0.08 0.67,0.27 0.72,0.49 1.02,1.02l0.4 0.03c0.06,0.17 -0.11,0.07 0.09,0.41l0.52 -0.1c0.22,-0.06 0.1,-0.1 0.43,-0.17 0.2,-0.23 0.51,-0.62 0.29,-1.16 -0.18,-0.44 -0.64,-0.37 -1.03,-0.6 -3,-0.21 -5.97,-0.57 -9.05,0.39 -2.41,0.76 -3.48,0.31 -5.61,-0.11 -3.44,-0.69 -5.59,-0.7 -8.96,-0.17z"/>
   <path class="fil1" d="M44.35 58.24l0.05 0.17 0.01 0.63c2.09,0.88 7.2,0.96 8.86,0.02l0.04 -2.03c-1.22,0.17 -3.99,2.35 -8.82,-0.03l-0.14 1.23z"/>
   <path class="fil0" d="M36.38 39.73c1.05,0.34 0.82,2.95 1.39,4.1 0.58,1.18 1.68,2 3.4,2.15 4.18,0.38 5.27,-1.63 6.26,-4.84 -0.12,0.01 -0.15,0.03 -0.27,0 -0.2,-0.04 -0.08,-0 -0.2,-0.09 0.02,-0.09 0.05,-0.3 0.03,-0.43l-0.17 -0.44c0.1,1.39 -0.7,3.03 -1.32,3.83 -0.81,1.03 -1.71,1.56 -3.66,1.47 -1.62,-0.08 -2.85,-0.68 -3.46,-1.66 -0.6,-0.96 -0.78,-3.26 -0.54,-4.51l-0.43 0.14c-0.08,0.17 0,0.21 -0.17,0.44l-0.37 -0.06 0.01 -0.41c-0,0 -0.25,0 -0.26,0 -0.23,-0.05 -0.19,-0.08 -0.27,-0.27l-0.07 -0.23c-0.29,0.04 -0.16,0 -0.27,-0.04 0.07,0.5 0.09,0.61 0.36,0.85z"/>
   <path class="fil0" d="M51.82 43.83c0,0.01 -0.01,0.24 -0.01,0.26 -0,0.02 -0.02,0.08 -0.02,0.07 -0,-0.01 -0.02,0.04 -0.02,0.07l-0.35 -0c0.58,1.67 4.18,2.24 6.44,1.27 1,-0.43 1.61,-1.19 2.03,-2.23 0.69,-1.72 0.04,-1.93 0.84,-3.51l-0.52 0.1c-0.2,-0.35 -0.03,-0.24 -0.09,-0.41l-0.4 -0.03c0.18,0.94 0.03,2.75 -0.22,3.64 -0.27,0.99 -0.99,1.65 -1.88,2.03 -0.96,0.4 -2.29,0.53 -3.41,0.34 -0.57,-0.1 -1.04,-0.34 -1.39,-0.62l-0.93 -0.93c-0.01,-0.03 -0.04,-0.03 -0.06,-0.04z"/>
  </g>
 </g>
</svg>
