<?xml version="1.0" encoding="UTF-8"?>
<!DOCTYPE svg PUBLIC "-//W3C//DTD SVG 1.1//EN" "http://www.w3.org/Graphics/SVG/1.1/DTD/svg11.dtd">
<!-- Creator: CorelDRAW 2018 (64-Bit) -->
<svg xmlns="http://www.w3.org/2000/svg" xml:space="preserve" width="0.426669in" height="0.426665in" version="1.1" style="shape-rendering:geometricPrecision; text-rendering:geometricPrecision; image-rendering:optimizeQuality; fill-rule:evenodd; clip-rule:evenodd"
viewBox="0 0 220.19 220.18"
 xmlns:xlink="http://www.w3.org/1999/xlink">
 <defs>
  <style type="text/css">
   <![CDATA[
    .fil0 {fill:#17E2A0}
    .fil1 {fill:white}
   ]]>
  </style>
 </defs>
 <g id="Layer_x0020_1">
  <metadata id="CorelCorpID_0Corel-Layer"/>
  <g id="_1702149764720">
   <rect class="fil0" x="0" y="0" width="220.18" height="220.18"/>
   <path class="fil0" d="M93.57 86.32c2.68,-0.29 11.62,-0.46 12.81,2.23 0.54,1.24 -0.13,8.99 -4.99,10.08 -2.1,0.47 -5.06,0.42 -7.22,0.1 -2.64,-0.39 -3.82,-0.95 -4.65,-3.08 -0.67,-1.73 -1.37,-4.56 -1.1,-6.64 0.32,-2.43 2.77,-2.44 5.14,-2.69zm26.9 -0.01c2.41,-0.25 5,-0.17 7.36,0.12 2.73,0.33 4.07,0.73 3.99,3.69 -0.05,1.97 -0.61,4.67 -1.42,6.22 -0.99,1.88 -2.54,2.22 -5.22,2.51 -2,0.22 -5.44,0.22 -7.21,-0.48 -1.87,-0.74 -2.71,-2.23 -3.45,-4.27 -2.65,-7.29 0.68,-7.24 5.94,-7.79zm-29.82 -14.62c-1.06,-1.02 -2.05,-2.07 -3.13,-3.14 -0.83,-0.83 -2.57,-2.3 -3.14,-3.11l7.04 3.61c0.89,0.47 2.73,1.66 3.64,1.68 1.94,0.04 3.18,-0.01 5.14,0.28 9.35,1.38 17.71,6.05 27.89,1.14 4.94,-2.38 4.31,-2.79 7.12,-4.73 -0.51,1.8 -2.77,4.93 -3.77,6.01 0.23,0.59 0.89,1.26 1.29,2.02 1.28,2.48 1.6,7.3 1.32,10.21 -6.82,-0.78 -10.68,-1.59 -17.69,-0.22 -2.85,0.56 -5.33,3.12 -9.58,1.01 -5.75,-2.85 -15.02,-1.45 -20.99,-0.72l-0.02 -0.8c-0.14,-11.83 3.54,-11.46 4.88,-13.24zm34.37 -28.2c-0.18,0.48 -0.33,0.5 -0.72,0.8 -0.17,0.13 -0.27,0.23 -0.44,0.35 -0.4,0.29 -0.14,0.16 -0.46,0.25 -0.15,0.21 -0.07,0.11 -0.24,0.29 -1.13,1.2 -5.07,3.36 -6.44,3.96 -1.98,0.86 -6.03,2.34 -8.4,2.38 1.84,-1.04 5.23,-3.52 5.86,-5.52l-1.65 0.68c-2.23,2.13 -15.85,2.13 -20.67,3.42 -7.77,2.08 -9.79,6.72 -10.18,13.92 -1.21,0.63 -2.88,2.8 -3.61,4.39 -3.01,6.57 -0.64,14.47 0.94,20.31l5.29 14.36 0.05 -1c-0.22,-2.53 -0.67,-10.87 0.16,-12.83 0.84,0.08 1.41,0.57 1.78,1.13 0.56,0.86 0.93,4.2 2.24,6.57 1.47,2.65 4.57,3.19 8.57,3.26 4.22,0.07 6.94,-0.6 8.62,-3.21 2.3,-3.56 1.54,-7.48 4.44,-7.42 1.96,0.04 2.04,1.68 2.57,3.3 0.4,1.23 1.14,3.22 1.73,4.11 1.74,2.64 4.36,3.29 8.61,3.22 7.44,-0.12 8.6,-1.9 10.14,-7.51 0.51,-1.84 0.58,-3.12 2.41,-3.48 0.9,3.06 0.46,10.11 -0.1,13.32l5.49 -14.1c0.33,-1.66 0.96,-3.37 1.36,-5.18 0.84,-3.83 1.2,-7.75 0.44,-11.63 -1.27,-6.52 -2.93,-2.56 -1.02,-6.41 0.28,-0.56 0.5,-1.07 0.7,-1.66 0.42,-1.24 0.74,-2.57 0.81,-4.05 -1.17,0.49 -2.02,1.48 -3.42,1.97 0.28,-0.9 1.12,-2.33 1.54,-3.37 0.52,-1.29 0.73,-2.52 1.18,-3.72 -0.08,-0.59 0.13,-0.28 -0.17,-0.51 -0.89,0.83 -2.9,2.77 -4.09,3.33 0.7,-3.09 1.16,-4.01 0.8,-7.59 -0.51,0.29 -1.84,1.75 -2.29,2.17 -1.7,1.63 -6.03,4.21 -8.21,4.45 3.27,-2.28 6.74,-5.84 7.03,-11.66 -0.53,0.27 -0.82,0.72 -1.25,1.15 -1,1.01 -2.81,2.15 -4.19,2.74 -2.06,0.89 -4.72,1.78 -7.23,2.04 0.59,-1.84 2,-3.11 2.44,-6.99 -0.14,-0.1 0.17,-0.25 -0.43,-0.05z"/>
   <path class="fil1" d="M118.85 178.35c6.49,-1 11.39,-1.96 17.14,-4.02 7.51,-2.7 14.41,-6.5 20.5,-11.14 5.04,-3.84 9.34,-7.98 13.35,-12.94 0.55,-0.68 1.87,-2.22 2.24,-3.06 -2.73,-5.88 -6.59,-10.24 -13.39,-12.25 -4.08,-1.2 -18.08,-3.42 -21.88,-3.81 0.4,0.88 1.35,2.05 1.91,2.99 1.38,2.31 4.09,7.41 4.51,9.79l-9.06 4.23 4.53 8.21c-0.79,1.25 -4.19,4.09 -5.32,5.26 -1.8,1.85 -3.48,3.06 -5.33,5.06 -0.44,0.48 -0.87,0.87 -1.35,1.33 -2.45,2.32 -6.88,7.53 -7.85,10.33z"/>
   <path class="fil1" d="M47.8 147.2c0.54,1.2 3.82,5.02 4.7,5.94 4.1,4.27 6.31,6.56 10.97,10.11 11.59,8.84 22.95,12.86 37.55,15.09 -0.61,-1.71 -3.13,-5.1 -4.21,-6.41 -1.95,-2.37 -3.06,-3.2 -5.06,-5.33 -1.16,-1.24 -1.81,-1.6 -2.68,-2.52 -1.54,-1.62 -4.06,-3.67 -5.33,-5.05 -0.75,-0.82 -1.98,-1.78 -2.56,-2.67 0.69,-1.38 1.48,-2.77 2.24,-4.09 0.6,-1.03 1.86,-3.07 2.22,-4.14l-9 -4.19c0.29,-1.62 2.08,-5.42 2.81,-6.81l3.59 -6.02c-3.79,0.59 -7.48,1.11 -11.15,1.7 -3.43,0.55 -7.47,1.18 -10.7,2.12 -6.68,1.93 -10.68,6.34 -13.39,12.25z"/>
   <path class="fil1" d="M90.65 71.69c-1.34,1.78 -5.02,1.41 -4.88,13.24l0.02 0.8c5.97,-0.74 15.24,-2.13 20.99,0.72 4.25,2.11 6.73,-0.45 9.58,-1.01 7,-1.37 10.87,-0.56 17.69,0.22 0.28,-2.91 -0.04,-7.73 -1.32,-10.21 -0.39,-0.76 -1.06,-1.43 -1.29,-2.02 1,-1.08 3.25,-4.21 3.77,-6.01 -2.81,1.95 -2.18,2.35 -7.12,4.73 -10.17,4.91 -18.53,0.24 -27.89,-1.14 -1.96,-0.29 -3.2,-0.23 -5.14,-0.28 -0.9,-0.02 -2.75,-1.21 -3.64,-1.68l-7.04 -3.61c0.57,0.81 2.31,2.28 3.14,3.11 1.07,1.07 2.07,2.12 3.13,3.14z"/>
   <path class="fil0" d="M83.04 131.13l-3.59 6.02c-0.73,1.39 -2.52,5.19 -2.81,6.81l9 4.19c-0.36,1.07 -1.62,3.11 -2.22,4.14 -0.76,1.32 -1.55,2.71 -2.24,4.09 0.58,0.89 1.81,1.85 2.56,2.67 1.27,1.38 3.8,3.43 5.33,5.05 0.86,0.91 1.52,1.28 2.68,2.52 2,2.13 3.1,2.96 5.06,5.33 1.08,1.31 3.61,4.7 4.21,6.41l4.45 0.35 2.1 0.1c-1.71,-11.36 -13.28,-27.66 -16.82,-42.87l0.01 -0.65c-0.43,-0.34 -0.78,-2.62 -0.97,-3.38l-0.55 -3.49c-1.3,-0.41 -5.32,2.22 -6.2,2.71z"/>
   <path class="fil0" d="M129.05 135.1l0.07 0.83c-3.44,15.02 -15.16,31.59 -16.82,42.87l2.11 -0.1 4.45 -0.35c0.97,-2.79 5.39,-8.01 7.85,-10.33 0.48,-0.46 0.9,-0.85 1.35,-1.33 1.85,-2 3.53,-3.21 5.33,-5.06 1.13,-1.17 4.53,-4.01 5.32,-5.26l-4.53 -8.21 9.06 -4.23c-0.42,-2.39 -3.13,-7.48 -4.51,-9.79 -0.56,-0.94 -1.51,-2.11 -1.91,-2.99 -0.96,-0.59 -4.84,-3.15 -6.17,-2.73 0.34,0.57 -0.33,2.55 -0.55,3.48 -0.28,1.17 -0.6,2.27 -0.79,3.51l-0.23 -0.31z"/>
   <path class="fil0" d="M105.47 178.7c0.89,0.61 3.31,0.13 4.54,0.13 1.22,0 3.49,0.48 4.39,-0.13l-2.11 0.1c1.67,-11.28 13.38,-27.85 16.82,-42.87l-1.71 2.76c-2.82,4.3 -6.69,7.98 -11.25,10.45 -1.09,0.59 -5.05,2.41 -6.29,2.36 -1.35,-0.05 -5.15,-1.81 -6.26,-2.42 -2.2,-1.2 -3.41,-2.16 -5.11,-3.54 -2.15,-1.74 -4.57,-4.57 -6.11,-6.95l-1.64 -2.65c3.54,15.2 15.12,31.51 16.82,42.87l-2.1 -0.1z"/>
   <path class="fil1" d="M91.6 129.62c0.1,1.04 -0.63,4.41 -0.84,5.67l-0.01 0.65 1.64 2.66c1.54,2.38 3.96,5.21 6.11,6.95 1.7,1.38 2.91,2.34 5.11,3.54 1.11,0.6 4.91,2.37 6.26,2.42 1.24,0.04 5.2,-1.77 6.29,-2.36 4.56,-2.48 8.43,-6.16 11.25,-10.45l1.71 -2.76 -0.07 -0.83 -0.54 -3.42c-0.11,-0.77 -0.29,-1.33 -0.2,-2.08 -0.29,-0.41 -1.59,-8 -1.61,-9.05 0.27,-0.52 0.9,-1.3 1.32,-1.88 1.18,-1.61 2.45,-3.88 3.42,-5.7 1.06,-1.98 3,-6.16 3.61,-8.48 0.26,-0.63 0.16,-0.25 0.17,-0.85 0.01,-0.42 -0.09,-0.09 0.04,-0.62 0.11,-0.41 -0.02,-0.23 0.24,-0.47 0.56,-3.22 1.01,-10.27 0.1,-13.32 -1.83,0.36 -1.9,1.64 -2.41,3.48 -1.54,5.62 -2.7,7.39 -10.14,7.51 -4.25,0.07 -6.87,-0.58 -8.61,-3.22 -0.59,-0.89 -1.32,-2.88 -1.72,-4.11 -0.53,-1.62 -0.61,-3.25 -2.57,-3.3 -2.9,-0.07 -2.14,3.86 -4.44,7.42 -1.69,2.61 -4.41,3.28 -8.62,3.2 -3.99,-0.07 -7.09,-0.61 -8.57,-3.26 -1.31,-2.36 -1.68,-5.71 -2.24,-6.57 -0.37,-0.56 -0.95,-1.05 -1.78,-1.13 -0.84,1.96 -0.39,10.3 -0.16,12.83l0.31 0.79c0.09,0.97 -0.53,0.54 0.24,1.7 0.06,1.33 2.83,7.12 3.5,8.41 0.72,1.36 1.43,2.59 2.16,3.82 0.74,1.24 1.73,2.34 2.48,3.6 0.11,0.63 -0.09,1.48 -0.18,2.18 -0.16,1.08 -0.98,6.5 -1.28,7.04z"/>
   <path class="fil0" d="M120.47 86.31c-5.26,0.55 -8.59,0.5 -5.94,7.79 0.74,2.04 1.58,3.54 3.45,4.27 1.77,0.7 5.21,0.7 7.21,0.48 2.68,-0.29 4.23,-0.63 5.22,-2.51 0.81,-1.55 1.37,-4.25 1.42,-6.22 0.08,-2.96 -1.26,-3.36 -3.99,-3.69 -2.36,-0.29 -4.95,-0.37 -7.36,-0.12z"/>
   <path class="fil0" d="M93.57 86.32c-2.37,0.25 -4.83,0.26 -5.14,2.69 -0.27,2.08 0.42,4.92 1.1,6.64 0.83,2.13 2.01,2.69 4.65,3.08 2.16,0.32 5.12,0.37 7.22,-0.1 4.85,-1.09 5.53,-8.84 4.99,-10.08 -1.18,-2.69 -10.13,-2.52 -12.81,-2.23z"/>
   <path class="fil1" d="M141.01 88.45l-5.49 14.1c-0.26,0.24 -0.13,0.06 -0.24,0.47 -0.13,0.52 -0.03,0.19 -0.04,0.62 -0.01,0.6 0.09,0.22 -0.17,0.85 0.35,0.11 1.52,1.7 3.02,0.33 0.7,-0.64 1.1,-1.95 1.72,-3 2.09,-3.56 8.18,-6.19 6.95,-11.45 -0.29,-1.26 -1.06,-2.06 -2.09,-2.49 -1.9,-0.8 -2.38,0.12 -3.66,0.57z"/>
   <path class="fil1" d="M84.91 104.57c-0.78,-1.16 -0.16,-0.73 -0.25,-1.7l-0.31 -0.78 -0.05 1 -5.29 -14.36c-4.36,-3.69 -8.85,2.74 -3.52,8.22 1.41,1.45 3.2,2.72 4.51,4.77 0.6,0.94 1.07,2.37 1.69,3.03 1.45,1.53 2.75,-0.03 3.22,-0.18z"/>
   <path class="fil0" d="M128.31 129.59c-0.09,0.75 0.09,1.31 0.2,2.08l0.54 3.42 0.23 0.31c0.19,-1.24 0.51,-2.34 0.79,-3.51 0.22,-0.93 0.89,-2.91 0.55,-3.48l-2.31 1.17z"/>
   <path class="fil0" d="M90.76 135.29c0.21,-1.26 0.94,-4.63 0.84,-5.67l-2.35 -1.2 0.55 3.49c0.18,0.76 0.53,3.04 0.97,3.38z"/>
  </g>
 </g>
</svg>
