<?xml version="1.0" encoding="UTF-8"?>
<!DOCTYPE svg PUBLIC "-//W3C//DTD SVG 1.1//EN" "http://www.w3.org/Graphics/SVG/1.1/DTD/svg11.dtd">
<!-- Creator: CorelDRAW 2018 (64-Bit) -->
<svg xmlns="http://www.w3.org/2000/svg" xml:space="preserve" width="0.426669in" height="0.426665in" version="1.1" style="shape-rendering:geometricPrecision; text-rendering:geometricPrecision; image-rendering:optimizeQuality; fill-rule:evenodd; clip-rule:evenodd"
viewBox="0 0 31.25 31.25"
 xmlns:xlink="http://www.w3.org/1999/xlink">
 <defs>
  <style type="text/css">
   <![CDATA[
    .fil0 {fill:#FF0078}
    .fil1 {fill:white}
   ]]>
  </style>
 </defs>
 <g id="Layer_x0020_1">
  <metadata id="CorelCorpID_0Corel-Layer"/>
  <rect class="fil0" x="0" y="0" width="31.25" height="31.25"/>
  <path class="fil1" d="M15.94 17.73c-0.04,0.03 0.01,0 -0.03,0.02l-0.3 0c0.02,0.14 0.01,1.91 0.01,2.27l-0.01 0.1c-0,0 -0.01,0.02 -0.01,0.02 0.06,-0 0.19,-0.01 0.24,0.02 0.13,-0.03 0.41,0.09 0.51,0.15 0.16,0.09 0.26,0.18 0.37,0.29 0.5,0.52 0.49,1.39 -0,1.9 -0.11,0.12 -0.2,0.2 -0.37,0.29 -0.11,0.06 -0.36,0.17 -0.51,0.15 -0.05,0.03 -0.15,0.02 -0.22,0.02 0.04,0.15 0.01,0.98 0.01,1.2 0,0.4 0,0.8 0,1.2l5.43 0c0.09,-0.05 0.39,-0.05 0.63,-0.4 0.16,-0.24 0.17,-0.49 0.22,-0.82l0.56 -3.56c0.03,-0.2 0.26,-1.72 0.28,-1.77l0 -0.26c-0.02,-0.04 -0.03,-0.11 -0.05,-0.16 -0.12,-0.33 -0.44,-0.61 -0.8,-0.61l-5.44 -0 -0.49 0 -0.02 -0.04 -0 0.02z"/>
  <path class="fil1" d="M8.62 18.81c0.04,0.08 0.25,1.54 0.29,1.77l0.56 3.55c0.07,0.46 0.1,0.94 0.65,1.15 0.06,0.02 0.15,0.03 0.2,0.06l5.31 0c0,-0.4 0,-0.8 0,-1.2 0,-0.22 0.03,-1.04 -0.01,-1.2 -0.47,-0.06 -0.67,-0.17 -0.93,-0.42 -0.21,-0.21 -0.4,-0.54 -0.41,-0.97 -0.01,-0.78 0.59,-1.36 1.32,-1.42 0,-0 0.01,-0.02 0.01,-0.02l0.01 -0.1c-0,-0.37 0.01,-2.13 -0.01,-2.27l-0.33 -0 -0.5 0 -5.3 0c-0.24,-0.01 -0.46,0.14 -0.58,0.25 -0.08,0.08 -0.12,0.13 -0.18,0.24 -0.06,0.11 -0.06,0.21 -0.1,0.31l0 0.25z"/>
  <path class="fil1" d="M15.62 9.65l0.01 0 -0 5.14c0.61,-0.03 0.99,-0.24 1.41,-0.6 0.03,-0.03 0.1,-0.1 0.15,-0.13 0,0.11 0.02,0.2 -0.05,0.26 -0.42,0.35 -0.92,0.58 -1.51,0.53l-0 0c-0.01,0.16 -0.02,1.17 0.01,1.27 0.06,-0.09 0.29,-0.29 0.38,-0.39 0.2,-0.21 1,-1.04 1.15,-1.17 0.05,-0.07 0.03,-0.15 0.03,-0.26 0,-0.08 -0.01,-0.21 0.01,-0.28l0.29 -0.33c0.17,-0.22 0.35,-0.49 0.48,-0.74 0.03,-0.07 0.18,-0.37 0.2,-0.4 0.06,-0.21 0.07,-0.09 0.21,-0.2 0.08,-0.06 0.14,-0.13 0.18,-0.22 0.08,-0.04 0.18,-0.44 0.19,-0.58 0.01,-0.12 0.02,-0.24 0,-0.37 -0.02,-0.14 -0.05,-0.19 -0.09,-0.3 -0.06,-0.04 -0.08,-0.12 -0.21,-0.12 -0.11,0 -0.15,0.07 -0.22,0.1 -0.05,-0.06 -0.11,-0.13 -0.17,-0.2 -0.05,-0.07 -0.1,-0.14 -0.15,-0.22 -0.09,-0.14 -0.18,-0.31 -0.25,-0.49 -0.17,-0.43 -0.21,-0.71 -0.27,-1.21 -0.03,0.01 -0.16,0.11 -0.19,0.13 -0.21,0.15 -0.38,0.26 -0.62,0.39 -0.21,0.12 -0.7,0.34 -0.96,0.38z"/>
  <path class="fil1" d="M12.51 11.02c0.02,0.11 -0.11,0.34 0.06,0.87 0.08,0.25 0.19,0.44 0.42,0.53l0.02 0.01c0.05,0.02 0.09,0.18 0.12,0.24 0.16,0.35 0.37,0.71 0.6,1.01l0.3 0.35c0.05,0.09 -0.01,0.42 0.02,0.54l0.02 -0c0.06,-0.12 -0.05,-0.33 0.04,-0.43l0.18 0.18c0.05,0.03 -0,0.01 0.06,0.03 0.01,-0.03 -0.01,-0.03 0.05,0.01 0.38,0.27 0.72,0.42 1.22,0.45l0 -5.14c-0.47,0.09 -0.84,0.14 -1.34,0.04 -0.2,-0.04 -0.39,-0.1 -0.56,-0.18 -0.09,-0.04 -0.17,-0.08 -0.24,-0.13 -0.09,-0.05 -0.18,-0.13 -0.23,-0.14 -0.02,0.05 -0.07,0.1 -0.1,0.16 -0.25,0.4 -0.29,0.91 -0.38,1.36 -0.09,0.05 -0.09,0.02 -0.16,0.1 -0.06,0.07 -0.05,0.12 -0.1,0.16z"/>
  <path class="fil0" d="M15.62 9.65c0.27,-0.04 0.75,-0.26 0.96,-0.38 0.24,-0.13 0.41,-0.24 0.62,-0.39 0.03,-0.02 0.16,-0.12 0.19,-0.13 0.06,0.5 0.1,0.78 0.27,1.21 0.07,0.18 0.16,0.35 0.25,0.49 0.05,0.08 0.1,0.15 0.15,0.22 0.06,0.07 0.12,0.14 0.17,0.2 0.07,-0.03 0.11,-0.1 0.22,-0.1 0.13,-0 0.15,0.08 0.21,0.12 0.17,-0.32 0.35,-0.89 0.43,-1.29 0.05,-0.26 0.08,-0.52 0.08,-0.79 -0,-0.3 -0.05,-0.47 -0.12,-0.74 -0.22,-0.58 -0.46,-0.78 -1,-0.94 -0.18,-0.05 -0.35,-0.07 -0.52,-0.11 -0.04,-0.01 -0.31,-0.21 -0.39,-0.26 -0.73,-0.46 -1.33,-0.45 -1.43,-0.5l-0.1 0c0.04,0.17 0.01,0.65 0.01,0.85 0,0.32 0.02,2.4 -0.01,2.53z"/>
  <path class="fil0" d="M13.71 6.83l-0.21 0.16c-0.38,0.28 -0.66,0.57 -0.91,0.98 -0.39,0.64 -0.43,1.09 -0.36,1.84 0.02,0.22 0.05,0.45 0.1,0.66 0.08,0.36 0.11,0.32 0.18,0.55 0.05,-0.04 0.04,-0.08 0.1,-0.16 0.07,-0.08 0.07,-0.05 0.16,-0.1 0.09,-0.45 0.14,-0.96 0.38,-1.36 0.03,-0.06 0.08,-0.11 0.1,-0.16 0.05,0.01 0.14,0.09 0.23,0.14 0.08,0.05 0.16,0.09 0.24,0.13 0.17,0.08 0.36,0.14 0.56,0.18 0.49,0.1 0.87,0.05 1.34,-0.04l-0.01 -0c0.02,-0.13 0.01,-2.21 0.01,-2.53 0,-0.2 0.02,-0.69 -0.01,-0.85l-0.37 0c-0.06,0.03 -0.47,0.06 -0.84,0.21 -0.37,0.15 -0.54,0.3 -0.69,0.36z"/>
  <path class="fil1" d="M16.45 17.73l0 0.03 5.44 0c-0.06,-0.03 -0.16,-0.02 -0.26,-0.02 -0.41,-0.83 -0.86,-0.98 -1.53,-1.44 -0.13,-0.09 -2.32,-1.42 -2.37,-1.44 -0.02,0.03 0.02,0.11 0.03,0.16l0.73 2.47 -0.75 -0.09 0.2 0.33 -1.48 0z"/>
  <path class="fil1" d="M9.48 17.76l5.3 -0 -0.01 -0.04c0.01,0.02 -0.68,0.01 -0.71,0.01 -0.25,0 -0.51,0 -0.76,0l0.19 -0.33 -0.75 0.09c0.01,-0.1 0.06,-0.24 0.1,-0.34 0.1,-0.33 0.68,-2.26 0.67,-2.28 -0.06,0.01 -0.93,0.55 -1.07,0.63 -0.35,0.21 -0.7,0.42 -1.05,0.64 -0.19,0.12 -0.33,0.22 -0.51,0.34 -0.17,0.11 -0.35,0.21 -0.52,0.33 -0.3,0.21 -0.59,0.56 -0.75,0.93l-0.13 0.02z"/>
  <path class="fil0" d="M13.51 14.86c0.01,0.02 -0.57,1.95 -0.67,2.28 -0.03,0.1 -0.08,0.24 -0.1,0.34l0.75 -0.09 -0.19 0.33c0.25,0 0.51,0 0.76,0 0.03,0 0.72,0.01 0.71,-0.01 0,-0.17 -0.12,-0.47 -0.14,-0.67 -0.04,-0.06 -0.58,-2.47 -0.58,-2.48 -0.03,-0.13 0.03,-0.45 -0.02,-0.54l0 0.52 -0.5 0.3c-0.02,0.02 -0.01,0 -0.02,0.02z"/>
  <path class="fil0" d="M17.16 14.57c0.01,0.01 0.02,0.01 0.01,0.07 -0.01,0.03 -0.01,0.05 -0.02,0.08l-0.25 1.08c-0.04,0.18 -0.26,1.15 -0.29,1.24l-0.03 -0 0.03 0.03 -0.15 0.66 1.48 0 -0.2 -0.33 0.75 0.09 -0.73 -2.47c-0.01,-0.04 -0.05,-0.13 -0.03,-0.16l-0.52 -0.31 0 -0.52c-0.02,0.07 -0.01,0.2 -0.01,0.28 -0,0.11 0.02,0.19 -0.03,0.26z"/>
  <path class="fil0" d="M15.62 22.61l0.17 -0c0.55,-0.07 1,-0.52 0.96,-1.14 -0.04,-0.56 -0.51,-1 -1.12,-0.99 -0.04,0 -0.05,-0 -0.08,0.02l0.07 0.01 0 0.01 -0 2.1z"/>
  <path class="fil0" d="M15.62 22.61l0 -2.1 -0 -0.01 -0.07 -0.01c-0.25,-0.02 -0.57,0.22 -0.67,0.35 -0.15,0.18 -0.28,0.42 -0.26,0.75 0.02,0.55 0.46,1 1.01,1.02z"/>
  <path class="fil1" d="M14.63 17.05c0.11,-0.01 0.29,-0.26 0.4,-0.32 0.03,-0.06 0.09,-0.1 0.14,-0.14 0.06,-0.05 0.09,-0.09 0.15,-0.14 0.05,-0.04 0.25,-0.25 0.31,-0.27l0 -0.06c-0.06,-0.01 -0.04,-0 -0.08,-0.04l-1.48 -1.52 -0.02 0c-0,0.01 0.54,2.42 0.58,2.48z"/>
  <path class="fil1" d="M15.63 16.12l-0 0.06 -0.01 0.01c0.06,0.03 0.23,0.2 0.29,0.26 0.05,0.05 0.26,0.22 0.29,0.27 0.1,0.04 0.28,0.29 0.37,0.31l0.03 0c0.03,-0.09 0.25,-1.06 0.29,-1.24l0.25 -1.08c0.01,-0.02 0.01,-0.05 0.02,-0.08 0.01,-0.06 0,-0.06 -0.01,-0.07 -0.15,0.13 -0.95,0.96 -1.15,1.17 -0.09,0.09 -0.32,0.29 -0.38,0.39z"/>
  <path class="fil1" d="M14.08 14.56l1.48 1.52c0.04,0.04 0.02,0.03 0.08,0.04 -0.03,-0.1 -0.02,-1.11 -0.01,-1.27 -0.43,-0.02 -0.81,-0.19 -1.15,-0.44 -0.03,-0.03 -0.08,-0.09 -0.12,-0.08 -0.06,-0.02 -0.01,0 -0.06,-0.03l-0.18 -0.18c-0.09,0.11 0.02,0.31 -0.04,0.43z"/>
  <path class="fil1" d="M15.94 17.71l0.02 0.04 0.49 -0 -0 -0.03 0.15 -0.66 -0.03 -0.03c-0.09,-0.02 -0.27,-0.27 -0.37,-0.31 -0.04,0.04 -0.3,0.34 -0.31,0.38 -0.01,0.05 0.05,0.51 0.05,0.61z"/>
  <path class="fil1" d="M14.63 17.05c0.02,0.2 0.14,0.5 0.14,0.67l0.01 0.04 0.5 -0c0.01,-0.12 0.07,-0.56 0.06,-0.64 -0.01,-0.04 -0.26,-0.34 -0.31,-0.38 -0.11,0.06 -0.29,0.31 -0.4,0.32z"/>
  <path class="fil0" d="M15.03 16.72c0.05,0.04 0.3,0.35 0.31,0.38 0.01,0.08 -0.05,0.52 -0.06,0.64l0.33 0 0.3 -0c0.05,-0.01 -0,0.02 0.03,-0.02l-0.32 -0 -0 -1.54 0.01 -0.01c-0.05,0.02 -0.25,0.22 -0.31,0.27 -0.05,0.05 -0.09,0.09 -0.15,0.14 -0.05,0.04 -0.11,0.08 -0.14,0.14z"/>
  <path class="fil0" d="M15.94 17.73l0 -0.02c-0.01,-0.1 -0.07,-0.56 -0.05,-0.61 0.01,-0.03 0.27,-0.33 0.31,-0.38 -0.03,-0.05 -0.23,-0.22 -0.29,-0.27 -0.06,-0.06 -0.24,-0.24 -0.29,-0.26l0 1.54 0.32 0z"/>
  <path class="fil1" d="M15.62 14.79l0 0.06c0.59,0.04 1.09,-0.18 1.51,-0.53 0.07,-0.06 0.05,-0.15 0.05,-0.26 -0.05,0.03 -0.12,0.1 -0.15,0.13 -0.42,0.36 -0.8,0.57 -1.41,0.6z"/>
  <path class="fil1" d="M15.62 14.85l0 -0 -0 -0.06c-0.5,-0.03 -0.84,-0.17 -1.22,-0.45 -0.06,-0.04 -0.04,-0.04 -0.05,-0.01 0.04,-0.01 0.09,0.05 0.12,0.08 0.34,0.25 0.71,0.42 1.15,0.44z"/>
  <path class="fil0" d="M16.56 10.46c-0.54,0.06 -0.88,0.05 -0.61,0.8 0.08,0.21 0.16,0.36 0.35,0.44 0.18,0.07 0.53,0.07 0.74,0.05 0.27,-0.03 0.43,-0.06 0.53,-0.26 0.08,-0.16 0.14,-0.44 0.15,-0.64 0.01,-0.3 -0.13,-0.34 -0.41,-0.38 -0.24,-0.03 -0.51,-0.04 -0.75,-0.01z"/>
  <path class="fil0" d="M13.87 10.46c-0.24,0.03 -0.49,0.03 -0.53,0.28 -0.03,0.21 0.04,0.5 0.11,0.68 0.09,0.22 0.21,0.28 0.48,0.32 0.22,0.03 0.53,0.04 0.74,-0.01 0.5,-0.11 0.57,-0.91 0.51,-1.03 -0.12,-0.28 -1.04,-0.26 -1.31,-0.23z"/>
 </g>
</svg>
